<svg width="374" height="96" viewBox="0 0 374 96" fill="none" xmlns="http://www.w3.org/2000/svg">
<path d="M68 18H298V51H68C64.6863 51 62 48.3137 62 45V24C62 20.6863 64.6863 18 68 18Z" fill="#FA897B" stroke="#FEDCCA" stroke-width="4"/>
<path d="M132.667 54.9136H307.358V88.7088H132.667C129.353 88.7088 126.667 86.0226 126.667 82.7088V60.9136C126.667 57.5999 129.353 54.9136 132.667 54.9136Z" fill="#D75D59" stroke="#FDC5B0" stroke-width="4"/>
<rect x="283.654" y="2" width="88.3457" height="86.7087" rx="6" fill="#FA897B" stroke="#FEDCCA" stroke-width="4"/>
<ellipse cx="124.667" cy="71.811" rx="24.6255" ry="24.189" fill="#FFDD94"/>
<path d="M126.145 60.2188V63.6992H124.328V60.2188H126.145ZM125.922 79.3555V82.4961H124.117V79.3555H125.922ZM127.445 75.5352C127.445 75.0898 127.359 74.7031 127.188 74.375C127.023 74.0469 126.746 73.7539 126.355 73.4961C125.973 73.2383 125.457 72.9922 124.809 72.7578C123.801 72.3906 122.918 71.9883 122.16 71.5508C121.402 71.1055 120.812 70.5547 120.391 69.8984C119.977 69.2422 119.77 68.4141 119.77 67.4141C119.77 66.4531 119.992 65.6211 120.438 64.918C120.891 64.207 121.52 63.6602 122.324 63.2773C123.129 62.8867 124.062 62.6914 125.125 62.6914C125.953 62.6914 126.695 62.8164 127.352 63.0664C128.016 63.3086 128.582 63.6641 129.051 64.1328C129.527 64.6016 129.891 65.1797 130.141 65.8672C130.398 66.5469 130.527 67.3242 130.527 68.1992H127.434C127.434 67.7148 127.379 67.2852 127.27 66.9102C127.16 66.5352 127.004 66.2188 126.801 65.9609C126.598 65.6953 126.352 65.4961 126.062 65.3633C125.781 65.2305 125.461 65.1641 125.102 65.1641C124.586 65.1641 124.16 65.2617 123.824 65.457C123.496 65.6523 123.254 65.918 123.098 66.2539C122.949 66.5898 122.875 66.9766 122.875 67.4141C122.875 67.8359 122.953 68.207 123.109 68.5273C123.273 68.8398 123.547 69.125 123.93 69.3828C124.32 69.6406 124.855 69.9023 125.535 70.168C126.551 70.543 127.434 70.957 128.184 71.4102C128.934 71.8555 129.516 72.4023 129.93 73.0508C130.344 73.6992 130.551 74.5195 130.551 75.5117C130.551 76.5273 130.316 77.3867 129.848 78.0898C129.387 78.793 128.738 79.3281 127.902 79.6953C127.066 80.0625 126.094 80.2461 124.984 80.2461C124.273 80.2461 123.57 80.1523 122.875 79.9648C122.18 79.7773 121.547 79.4727 120.977 79.0508C120.414 78.6211 119.965 78.0547 119.629 77.3516C119.293 76.6406 119.125 75.7695 119.125 74.7383H122.23C122.23 75.332 122.309 75.8242 122.465 76.2148C122.621 76.6055 122.832 76.918 123.098 77.1523C123.363 77.3789 123.66 77.5391 123.988 77.6328C124.316 77.7266 124.648 77.7734 124.984 77.7734C125.531 77.7734 125.984 77.6797 126.344 77.4922C126.711 77.3047 126.984 77.043 127.164 76.707C127.352 76.3633 127.445 75.9727 127.445 75.5352Z" fill="white"/>
</svg>
