<svg width="78" height="78" viewBox="0 0 78 78" fill="none" xmlns="http://www.w3.org/2000/svg">
<mask id="mask0_227_3367" style="mask-type:alpha" maskUnits="userSpaceOnUse" x="0" y="0" width="78" height="78">
<rect width="78" height="78" fill="#D9D9D9"/>
</mask>
<g mask="url(#mask0_227_3367)">
<path d="M34.2051 47.8613L109.365 63.3605V77.9497H34.2051V47.8613Z" fill="#9DDAF8"/>
<path d="M35.8423 58.4281C35.2185 57.141 36.1022 56.1368 36.6221 55.7955L47.3045 67.1667L57.2852 61.4994L58.1819 61.865C58.3249 62.0966 58.6342 62.5963 58.7278 62.7425C58.8447 62.9253 59.6634 63.4007 59.6245 63.876C59.5855 64.3513 60.2872 64.9363 60.6771 64.5707C61.067 64.205 62.0807 63.8028 62.0807 64.3879C62.0807 64.9729 62.1976 65.5945 62.2756 65.8504C62.3536 66.1063 63.2503 67.2032 65.1606 67.7882C67.071 68.3733 65.1996 68.3733 66.0963 69.3605C66.993 70.3477 66.0573 70.4208 65.8234 70.7133C65.5895 71.0058 65.1606 70.7133 64.5758 71.7736C64.4979 72.4318 63.6791 71.0789 63.2503 71.5543C62.8214 72.0296 62.9774 72.4318 63.2503 73.2362C63.5232 74.0406 62.0258 73.6828 63.2503 74.2234C64.5758 74.8085 66.1702 74.3753 67.071 74.0406C68.3804 73.5541 71.1257 71.2617 72.8801 70.4208C74.6345 69.5798 75.0634 69.9089 76.4279 70.0917C77.7925 70.2745 78.2603 71.7371 79.079 72.4318C79.8978 73.1265 82.315 70.4208 83.4846 68.7389C84.6542 67.057 85.161 67.057 86.6815 66.216C88.202 65.3751 88.7479 64.7535 90.7752 64.461C92.8025 64.1685 95.2197 64.7169 95.8045 64.461C96.3893 64.205 96.7792 64.461 97.0521 63.7297C97.325 62.9985 98.0658 62.5597 98.7675 62.2672C99.4693 61.9747 99.9372 62.2306 100.639 62.2672C101.2 62.2964 106.695 63.7419 109.372 64.461V0H-32.3462V77.9857H40.646C40.646 76.7669 39.741 70.472 39.741 70.0917C39.741 69.6164 39.3901 69.0314 39.0003 68.7389C38.6104 68.4464 37.0509 66.5817 36.6221 66.1795C36.1932 65.7773 36.2712 64.9363 36.1542 64.461C36.0372 63.9857 35.4914 61.9747 35.8423 61.2434C36.1932 60.5122 36.622 60.0368 35.8423 58.4281Z" fill="#8A8894"/>
<path d="M38.8053 48.5192C39.1483 48.373 39.1561 47.922 39.1172 47.7148C39.1821 47.7148 39.3901 47.7368 39.702 47.8245C40.0918 47.9342 40.7936 48.6289 41.0275 48.7752C41.2614 48.9214 41.6903 49.0311 41.9632 49.2139C42.2361 49.3968 42.2361 50.0549 42.3141 50.3108C42.3921 50.5668 43.0549 51.2249 43.3668 51.4809C43.6787 51.7368 44.2245 51.7368 44.4584 51.6637C44.6923 51.5905 44.6533 51.4809 44.7313 51.298C44.8093 51.1152 44.6923 50.8958 44.9652 50.713C45.2381 50.5302 45.628 50.6765 45.9399 50.7862C46.2518 50.8958 46.2518 50.8958 46.4078 50.8958C46.5637 50.8958 46.6417 50.7496 46.7976 50.6033C46.9536 50.4571 47.1485 50.4936 47.4214 50.1646C47.6943 49.8355 48.2401 49.9452 48.3571 50.0549C48.4507 50.1426 48.4741 50.4571 48.4741 50.6033L48.9419 50.8958C49.0719 51.0299 49.3864 51.3346 49.6047 51.4809C49.8776 51.6637 49.9946 51.8831 50.2675 52.3218C50.5404 52.7606 50.6573 53.2359 50.8133 53.2359C50.9692 53.2359 51.2811 53.0531 51.4761 53.0531C51.671 53.0531 52.0219 53.7843 52.1389 53.7843C52.2558 53.7843 52.8016 53.9306 52.9576 53.9672C53.1135 54.0037 53.7763 54.3694 54.1272 54.3694C54.4781 54.3694 55.1799 54.5887 55.4918 54.735C55.8037 54.8812 55.8816 55.3566 56.1935 55.32C56.5054 55.2834 56.8173 55.5028 57.1292 55.4297C57.4411 55.3566 57.3631 54.6984 57.3242 54.3694C57.2852 54.0403 57.2852 54.2962 57.5971 53.7843C57.909 53.2725 58.1039 53.4918 58.4548 53.2359C58.8057 52.9799 59.1176 52.8703 59.5074 53.0531C59.8973 53.2359 59.9753 54.0403 60.1312 54.3694C60.2872 54.6984 60.4431 54.8081 60.5211 55.0275C60.5991 55.2469 59.9753 56.0513 59.3905 56.7094C58.8057 57.3675 59.3125 58.0622 59.9753 58.1719C60.6381 58.2816 60.5991 58.5741 60.5991 58.8666C60.5991 59.1591 59.2345 60.5851 59.0006 60.9142C58.7667 61.2432 57.792 61.4261 57.9869 61.7186C58.1819 62.0111 58.0259 64.863 57.9869 65.1921C57.9479 65.5211 57.87 65.448 57.5581 65.7405C57.2462 66.033 56.7783 66.2158 56.1545 66.2158C55.5307 66.2158 55.3358 66.3255 55.0239 66.874C54.829 67.203 56.1545 67.7881 56.4664 68.044C56.7783 68.2999 57.0123 68.7387 57.0123 69.1409C57.0123 69.5431 56.8563 69.9087 55.6867 70.6034C54.5171 71.2981 54.0492 71.2616 51.4761 72.1391C48.9029 73.0166 46.8366 73.4554 46.0179 73.4919C45.1992 73.5285 44.5364 73.8575 44.2245 73.7844C43.9126 73.7113 43.2108 71.9563 42.665 70.8228C42.1192 69.6893 40.7936 68.7021 39.3511 67.3493C37.9086 65.9965 36.3101 62.4864 36.466 62.1939C36.622 61.9014 37.0119 60.256 36.9729 59.7807C36.9339 59.3054 36.661 57.8429 36.466 57.2578C36.2711 56.6728 36.661 55.8684 36.7389 55.6856C36.8169 55.5028 37.2068 55.4662 37.6356 55.3931C38.0645 55.32 38.1815 55.4662 38.4154 55.6856C38.6493 55.905 38.8442 55.8319 39.1561 55.7953C39.468 55.7588 39.624 55.6125 39.7799 55.4662C39.9359 55.32 40.0139 54.2962 39.9749 54.1134C39.9359 53.9306 39.624 53.6381 39.4291 53.3821C39.2341 53.1262 39.0002 52.6143 38.8832 52.4315C38.7663 52.2487 38.8832 51.5905 38.8832 51.1152C38.8832 50.6399 38.6883 50.4571 38.5713 50.2743C38.4544 50.0915 38.1425 49.9452 37.9475 49.8721C37.7526 49.7989 37.1288 49.7624 36.8949 49.6527C36.661 49.543 36.3101 49.1408 36.1931 48.9214C36.0762 48.7021 36.1541 48.5192 36.1931 48.3364C36.2321 48.1536 36.622 48.0439 36.8949 48.0439C37.1678 48.0439 37.3627 48.0805 37.6746 48.3364C37.9865 48.5924 38.3764 48.7021 38.8053 48.5192Z" fill="#A2D89F"/>
<path d="M39.4682 33.1996C38.938 33.6091 38.0517 35.2959 37.6748 36.0881H38.2206C38.4156 36.0881 38.1816 36.3075 38.5325 36.5634C38.8834 36.8194 39.0783 36.4903 39.3902 36.5634C39.7021 36.6366 39.6242 36.9656 39.7021 37.5506C39.7801 38.1357 39.7801 37.9894 40.053 38.026C40.3259 38.0625 40.4039 38.2453 40.4039 38.355C40.4039 38.4647 40.209 38.4647 40.053 38.7207C39.8971 38.9766 40.248 39.0863 40.6768 39.0132C41.1057 38.9401 40.7158 39.1594 41.3006 39.2691C41.8854 39.3788 42.0024 39.4154 42.5092 39.0863C42.9147 38.823 43.276 38.9766 43.4059 39.0863C43.7178 39.1594 43.6398 39.781 43.4839 40.0735C43.3279 40.366 43.25 40.6585 43.4059 40.6951C43.5619 40.7316 44.3026 39.8907 44.5365 39.6348C44.7705 39.3788 45.3553 39.4154 45.7841 39.4885C46.213 39.5616 46.5639 40.5854 47.2656 40.2929C47.9674 40.0004 47.5386 39.3788 47.4216 39.2691C47.3046 39.1594 46.8368 38.7938 46.8368 38.4647C46.8368 38.1357 47.5386 37.5141 47.8115 37.3313C48.0844 37.1485 48.3573 36.8559 48.3573 36.4903C48.3573 36.1247 47.7725 35.5762 47.0317 34.9912C46.291 34.4062 45.3943 32.7974 45.2773 32.3952C45.1603 31.993 45.2383 31.8834 45.3943 31.664L45.3943 31.664C45.5502 31.4446 45.6672 31.3715 45.5502 31.1155C45.4332 30.8596 44.9654 30.7864 44.9264 30.0917C44.8874 29.397 44.6925 29.3605 44.4586 29.3239C44.2246 29.2874 43.7568 29.7261 43.6009 29.9455C43.4761 30.121 43.289 30.3111 43.211 30.3843C43.003 30.6402 42.4078 31.2983 41.6905 31.8834C41.1057 32.2855 40.131 32.6877 39.4682 33.1996Z" fill="#A2D89F"/>
<path d="M31.7485 44.5707C31.9668 44.4537 31.9434 43.8638 31.9044 43.5835C31.9824 43.6201 32.2241 43.6932 32.5672 43.6932C32.9961 43.6932 33.4639 43.8394 33.7368 43.9857C34.0097 44.1319 34.2436 43.9857 34.5166 44.0588C34.7895 44.1319 34.7115 44.3148 34.7115 45.0826C34.7115 45.8504 35.1014 45.8504 35.2963 45.8504C35.4912 45.8504 35.5692 45.7407 35.9981 45.4482C36.4269 45.1557 36.8948 45.3751 37.0897 45.5213C37.2846 45.6676 37.4016 45.8504 37.5576 46.1795C37.7135 46.5086 38.9221 47.3495 39.0001 47.6786C39.078 48.0076 38.6882 48.3733 38.3763 48.4464C38.0644 48.5195 37.8305 48.1905 37.4796 48.0076C37.1287 47.8248 36.7778 47.8248 36.4659 47.898C36.154 47.9711 35.9201 48.3733 36.076 49.0314C36.232 49.6896 37.0897 50.0552 37.6745 50.0552C38.2593 50.0552 38.2203 50.2746 38.5712 50.6036C38.9221 50.9327 38.6102 51.9199 38.6882 52.3587C38.7662 52.7974 39.6239 53.9309 39.7408 54.004C39.8578 54.0771 39.8578 54.3331 39.7408 54.845C39.6239 55.3569 39.6629 55.5031 39.156 55.6494C38.6492 55.7956 38.5322 55.5031 38.2983 55.3203C38.0644 55.1375 37.4406 55.2106 37.0507 55.3203C36.6608 55.43 36.7778 55.5031 36.5829 55.6494C36.3879 55.7956 36.5829 55.5762 36.4269 55.5031C36.271 55.43 35.9981 55.6128 35.8031 55.6494C35.6082 55.6859 35.9981 55.4665 36.154 55.3203C36.31 55.174 36.271 55.0278 35.9981 54.845C35.7252 54.6622 35.7252 54.9547 35.6472 55.2106C35.5692 55.4665 35.2963 55.5031 35.1403 55.3934C34.9844 55.2837 34.7505 54.5159 34.7505 54.3331C34.7505 54.1503 34.6335 53.9309 34.4386 53.6018C34.2436 53.2728 34.4776 53.4921 34.7505 53.2362C35.0234 52.9802 34.8284 53.0534 35.2183 53.0534C35.6082 53.0534 35.6472 53.0534 35.5692 52.9071C35.4912 52.7609 35.1403 52.7243 35.1403 52.6146C35.1403 52.5049 35.4133 52.2124 35.4912 51.9199C35.5692 51.6274 35.3353 51.7737 35.2963 51.6274C35.2651 51.5104 35.4652 51.3837 35.5692 51.3349C35.5692 51.2252 35.5536 50.962 35.4912 50.7865C35.4133 50.5671 35.1014 50.7499 34.9844 50.4208C34.8674 50.0918 34.7895 50.1649 34.6335 50.0552C34.4776 49.9455 34.3996 49.9455 34.2436 49.7992C34.0877 49.653 33.7368 49.6164 33.3859 49.5433C33.035 49.4702 33.113 49.2142 32.9181 49.1411C32.7231 49.068 32.4892 49.4702 32.2163 49.6164C31.9434 49.7627 31.9824 49.5433 31.9044 49.3239C31.8264 49.1045 31.6705 48.9583 31.5535 48.7389C31.4366 48.5195 31.2416 48.5195 31.0467 48.3733C30.8518 48.227 31.1247 47.9345 31.2416 47.6786C31.3586 47.4226 31.4366 47.3495 31.0467 46.8376C30.6568 46.3257 30.6568 46.3257 30.5399 45.8504L30.5399 45.8504C30.4229 45.3751 30.5789 45.2654 30.9297 44.8266C31.2806 44.3879 31.4756 44.717 31.7485 44.5707Z" fill="#A2D89F"/>
<path d="M35.8034 39.744C35.8034 39.4222 35.9853 39.3418 36.0763 39.3418C36.6221 39.3418 36.895 39.744 36.973 39.9999C37.0509 40.2559 37.0509 40.2559 36.973 40.4021C36.895 40.5484 36.4271 41.0968 36.3492 41.499C36.2712 41.9012 36.5831 42.2669 36.895 42.2669C37.2069 42.2669 37.4408 42.0109 37.6747 42.0109C37.8619 42.0109 38.1426 42.1815 38.2595 42.2669C38.1036 42.4984 37.7215 43.0274 37.4408 43.2906C37.0899 43.6197 36.973 43.8756 36.973 44.2047C36.973 44.5338 37.012 44.936 36.973 45.1919C36.934 45.4479 36.778 45.2285 36.4271 45.1919C36.0763 45.1554 35.8034 45.1919 35.6084 45.4113C35.4135 45.6307 35.3355 45.6672 35.1016 45.6307C34.8677 45.5941 34.9066 44.7897 34.9066 44.3144C34.9066 43.8391 34.8287 43.8756 34.5168 43.7659C34.2049 43.6563 33.971 43.9488 33.6201 43.7659C33.2692 43.5831 33.4251 43.5831 33.0353 43.51C32.7234 43.4515 32.2555 43.4856 32.0606 43.51C32.0086 43.4125 31.9358 43.2029 32.0606 43.1444C32.2165 43.0712 32.2555 42.8153 32.3725 42.5594C32.4894 42.3034 32.1386 42.3765 32.0606 42.2669C31.9826 42.1572 32.2165 42.1937 32.2555 42.0109C32.2945 41.8281 32.1386 41.6453 32.1386 41.499C32.1386 41.3528 32.7234 41.5356 33.5031 41.499C34.2829 41.4625 34.5558 41.2065 34.7117 40.914C34.8677 40.6215 35.2185 40.8775 35.5304 40.6215C35.8423 40.3656 35.8034 40.1462 35.8034 39.744Z" fill="#A2D89F"/>
<path d="M34.6336 36.49C34.5712 36.1975 34.9715 35.9294 35.1794 35.8319C35.3484 35.7709 35.6863 35.7075 35.6863 35.9415C35.6863 36.234 36.0372 36.5997 36.2321 36.7825C36.427 36.9653 36.8169 36.7825 37.0898 36.5997C37.3627 36.4169 37.6356 36.2706 37.9475 36.2706C38.2594 36.2706 38.1425 36.6728 38.3374 36.8556C38.5323 37.0384 39.0392 36.7459 39.3121 36.8556C39.585 36.9653 39.39 37.1481 39.468 37.7331C39.546 38.3182 39.7409 38.1719 40.0528 38.245C40.3647 38.3182 40.0138 38.4278 39.8579 38.7203C39.7019 39.0129 40.2088 39.1225 40.7156 39.3419C41.1884 39.5466 41.9664 39.4649 42.0373 39.453C42.0389 39.4521 42.0402 39.4516 42.0412 39.4516C42.0438 39.4516 42.0424 39.4521 42.0373 39.453C41.9764 39.4869 41.4933 40.1491 41.4174 40.256C41.3394 40.3657 41.4174 40.6582 40.2868 41.097C39.1561 41.5357 38.5713 42.0842 38.3374 42.0842C38.1035 42.0842 38.1035 41.9013 37.7526 41.7917C37.4017 41.682 37.4407 41.9745 37.0118 42.0842C36.583 42.1939 36.622 41.4992 36.7389 41.2432C36.8559 40.9873 37.1678 40.6582 37.3237 40.4023C37.4797 40.1463 37.2847 40.0732 37.1678 39.7807C37.0508 39.4882 36.622 39.1957 36.3101 39.1225C35.9982 39.0494 35.9202 39.1225 35.6863 39.4516C35.4523 39.7807 35.6473 40.256 35.5303 40.4023C35.4134 40.5485 35.0235 40.6582 34.6336 40.6582C34.2438 40.6582 33.7369 40.0732 33.62 39.9269C33.503 39.7807 33.581 39.5613 33.542 39.3419C33.503 39.1225 33.7369 38.9397 33.7369 38.7203C33.7369 38.501 33.6979 38.501 34.0098 38.5741C34.3217 38.6472 34.8675 38.2816 35.0235 38.0622C35.1794 37.8428 35.1015 37.3309 34.8675 37.0384C34.6336 36.7459 34.7116 36.8556 34.6336 36.49Z" fill="#A2D89F"/>
<path d="M31.6707 41.2065C31.5771 41.148 32.6713 40.3534 33.2302 39.9634H33.3471C33.4251 39.9634 34.3608 40.8043 34.4388 40.8775C34.5167 40.9506 34.4778 41.0968 34.2828 41.2065C34.0879 41.3162 33.3471 41.3162 32.7233 41.3528C32.0995 41.3893 31.7876 41.2797 31.6707 41.2065Z" fill="#A2D89F"/>
<path d="M36.5049 36.6362C36.193 36.7825 35.9851 36.3559 35.9201 36.1243C35.9201 35.9903 35.8577 35.6929 35.6082 35.5759C35.2963 35.4297 34.9065 35.9415 34.5946 36.1609C34.2827 36.3803 34.6335 37.075 34.8285 37.2578C35.0234 37.4406 34.9844 37.7697 34.9454 37.916C34.9065 38.0622 34.6335 38.4278 33.9318 38.3547C33.23 38.2816 33.4249 37.916 33.113 37.8063C32.8012 37.6966 32.4113 37.7697 32.2163 37.6966C32.0214 37.6234 32.2553 37.4041 32.2163 37.2213C32.1774 37.0384 32.0994 36.8922 31.8265 36.7459C31.5536 36.5997 31.4756 36.6362 31.5536 36.4169C31.6315 36.1975 31.9824 36.3072 32.0994 36.1609C32.2163 36.0147 32.4892 35.7222 32.6452 35.5759C32.8012 35.4296 32.8401 35.2834 32.7622 34.9909C32.6842 34.6984 32.5672 34.8446 32.4892 34.6984C32.4113 34.5521 32.8401 34.6984 32.8401 34.479C32.8401 34.2596 32.8401 34.1499 33.23 34.4059C33.6199 34.6618 33.4249 35.2103 33.5809 35.5759C33.7368 35.9415 34.4386 35.7953 34.7505 35.7953C35.0624 35.7953 35.4133 35.4662 35.6472 35.2103C35.8811 34.9543 35.9981 34.6984 36.271 34.6253C36.5439 34.5521 36.6999 34.7349 36.9338 34.9909C37.1677 35.2468 37.0118 36.0147 36.9728 36.1609C36.9338 36.3072 36.8948 36.4534 36.5049 36.6362Z" fill="#A2D89F"/>
<path d="M32.7233 37.9528C32.3802 37.8358 31.6967 37.904 31.3978 37.9528L31.2028 38.0259C31.3068 38.0259 31.5771 38.0405 31.8266 38.099C32.1385 38.1722 32.4894 38.4281 32.6454 38.7937C32.8013 39.1594 31.1249 40.2197 31.2028 40.3659C31.2808 40.5122 31.3978 40.9144 31.6707 40.9875C31.9436 41.0606 33.2692 39.8175 33.3471 39.7078C33.4251 39.5981 33.3861 39.525 33.3471 39.3422C33.3081 39.1594 33.5811 38.8669 33.5811 38.7206C33.5811 38.5744 33.1522 38.099 32.7233 37.9528Z" fill="#A2D89F"/>
<path d="M29.864 38.4117C29.7973 38.4673 29.7428 38.501 29.7212 38.501C29.7573 38.4773 29.807 38.4459 29.864 38.4117C30.038 38.2664 30.2952 37.9711 30.267 37.7332C30.228 37.4041 29.9551 37.331 30.1111 37.1481C30.267 36.9653 30.306 36.8556 30.345 36.6728C30.384 36.49 30.267 36.3438 30.5009 36.3438C30.7349 36.3438 30.6569 36.5266 31.0078 36.6728C31.3587 36.8191 31.5536 36.8191 31.7875 37.0385C32.0214 37.2578 32.0604 37.5869 31.9824 37.66C31.9045 37.7332 31.3976 37.7697 31.2027 37.916C31.0078 38.0622 30.5789 38.0988 30.345 38.1719C30.2098 38.2142 30.0122 38.3226 29.864 38.4117Z" fill="#A2D89F"/>
<path d="M30.9299 40.183C30.7427 40.2123 30.7739 40.0246 30.8129 39.9271C30.8376 39.7442 31.4367 39.4152 31.3977 39.3055C31.3587 39.1958 31.2808 39.1227 31.0858 39.013C30.8909 38.9033 30.0722 38.5742 30.0332 38.4645C29.9942 38.3548 31.1638 38.1355 31.4757 38.172C31.7876 38.2086 32.2944 38.6839 32.3724 38.8667C32.4504 39.0495 31.1638 40.1464 30.9299 40.183Z" fill="#A2D89F"/>
<path d="M28.6298 41.0238C28.4739 41.1116 28.6948 41.2798 28.8247 41.3529C28.9027 41.487 29.0977 41.7331 29.2536 41.6454C29.4485 41.5357 29.7994 41.4991 30.2283 41.4991C30.6571 41.4991 30.5012 41.4626 30.7351 41.3529C30.969 41.2432 31.3589 41.2798 31.4369 41.2432C31.5149 41.2066 31.5149 41.1701 31.4369 41.0238C31.3589 40.8776 31.2419 40.7679 31.125 40.6582C31.008 40.5485 31.125 40.3657 30.8131 40.5119C30.5012 40.6582 30.3452 40.6948 29.8384 40.7679C29.3316 40.841 28.8247 40.9141 28.6298 41.0238Z" fill="#A2D89F"/>
<path d="M29.1366 39.4882C29.0743 39.3127 29.5785 38.8301 29.8384 38.6107C30.0333 38.5375 30.8911 39.086 31.125 39.2688C31.3589 39.4516 31.047 39.4151 30.6961 39.7441C30.3452 40.0732 30.7741 40.0366 30.6571 40.3291C30.5402 40.6216 29.1366 40.8045 29.3706 40.6948C29.6045 40.5851 29.4485 40.0001 29.3706 39.8538C29.2926 39.7076 29.2146 39.7076 29.1366 39.4882Z" fill="#A2D89F"/>
<path d="M27.3819 40.1467C27.2571 40.2929 27.2779 40.6464 27.3039 40.8048C27.5898 40.9023 28.2006 41.0973 28.3565 41.0973C28.5515 41.0973 28.3955 40.8048 28.7854 40.7683C29.1753 40.7317 29.3312 40.5123 29.3312 40.4026C29.3312 40.2929 29.2922 40.0004 29.1363 39.8907C28.9803 39.7811 29.0193 39.5251 28.9414 39.452C28.8634 39.3788 28.7464 39.7079 28.5905 39.7445C28.4345 39.781 28.4735 39.781 28.3955 39.7079C28.3084 39.6262 28.3955 39.5251 28.1616 39.5251C27.9277 39.5251 27.5378 39.9639 27.3819 40.1467Z" fill="#A2D89F"/>
<path d="M26.2906 42.7425C26.1658 42.5963 26.2386 41.219 26.2906 40.5487C26.3014 40.4025 26.4075 40.6218 26.6414 40.695C26.8754 40.7681 28.4738 41.28 28.6298 41.3531C28.7857 41.4262 28.9027 41.6822 28.8247 41.7919C28.7468 41.9015 27.2263 42.8522 26.8364 42.9619C26.4465 43.0716 26.4465 42.9253 26.2906 42.7425Z" fill="#A2D89F"/>
<path d="M24.5752 45.4113C24.6999 45.3528 24.6272 44.9482 24.5752 44.7532C24.5752 44.5338 25.082 44.7532 25.6278 44.5338C26.1737 44.3144 26.0567 43.8391 26.0957 43.6563C26.1347 43.4734 26.1347 42.669 26.1737 42.8153C26.2126 42.9616 26.4076 43.1078 26.7195 43.1809C27.0314 43.2541 28.3569 42.3034 29.0977 41.8647C29.8384 41.4259 30.1503 41.6818 30.4622 41.6818C30.7741 41.6818 30.6572 41.6818 30.8521 41.499C31.0471 41.3162 31.7488 41.3528 31.9827 41.6087C32.2167 41.8647 31.9048 42.1572 31.7488 42.1937C31.5929 42.2303 31.5929 42.1937 31.32 42.2303C31.0471 42.2669 31.203 42.5228 31.0471 42.5594C30.8911 42.5959 30.6962 42.4862 30.5012 42.4131C30.3063 42.34 30.4622 42.6325 29.9944 42.7056C29.5266 42.7787 28.5519 43.0347 27.8891 43.2541C27.2263 43.4734 27.0704 44.5338 27.0314 44.68C26.9924 44.8263 26.6415 45.4844 26.5635 45.6672C26.4856 45.85 26.2516 45.9597 26.1737 45.85C26.0957 45.7404 26.0957 45.5575 25.9397 45.4844C25.7838 45.4113 25.7448 45.521 25.4719 45.6672C25.199 45.8135 25.043 45.8866 24.6142 45.9597C24.1853 46.0329 24.0683 45.7404 23.9514 45.5575C23.8344 45.3747 24.4192 45.4844 24.5752 45.4113Z" fill="#A2D89F"/>
<path d="M26.9141 35.1375C26.9453 34.8742 27.0311 34.8084 27.0701 34.8084C27.1481 34.8084 27.382 35.0278 27.6159 35.1375C27.8498 35.2472 27.9668 35.0644 28.1228 34.8084C28.2787 34.5525 28.2787 34.4794 28.6296 34.4428C28.9805 34.4062 29.7602 35.1009 29.8772 35.2106C29.9941 35.3203 30.1501 35.3203 30.501 35.2472C30.7817 35.1887 30.7479 35.2959 30.6959 35.3569C30.267 35.43 30.384 35.7225 30.384 35.9419C30.384 36.1613 30.267 36.3075 30.1111 36.5635C29.9551 36.8194 29.9162 37.1119 29.9162 37.441C29.9162 37.7701 29.9941 37.7701 29.7992 37.9894C29.6043 38.2088 28.9805 39.4885 28.5516 39.4885C28.1228 39.4885 27.382 36.8925 27.304 36.6732C27.226 36.4538 26.8752 35.4666 26.9141 35.1375Z" fill="#A2D89F"/>
<path d="M24.809 36.5634C24.6843 36.3586 25.1469 36.1612 25.3939 36.088C25.6018 36.0393 26.1112 35.8833 26.4855 35.6493C26.9533 35.3568 26.9533 35.9784 27.1483 36.6731C27.3432 37.3678 27.889 38.7572 27.967 38.94C28.045 39.1228 28.084 39.3056 27.967 39.4884C27.85 39.6712 27.4992 39.6712 27.2652 39.8906C27.0313 40.11 27.3042 40.4025 27.1483 40.5488C26.9923 40.695 26.9533 40.695 26.5635 40.4756C26.1736 40.2563 26.2126 40.0369 26.0956 39.4884C25.9787 38.94 25.6278 37.9528 25.3549 37.514C25.082 37.0753 24.965 36.8193 24.809 36.5634Z" fill="#A2D89F"/>
<path d="M23.7174 35.2835C23.4991 35.3127 23.1066 35.8319 22.9377 36.0879C22.9132 36.1244 22.9377 36.161 23.0156 36.2341C23.0936 36.3073 23.0936 36.4901 23.0936 36.5998C23.0936 36.7095 23.0156 36.7826 22.9377 37.0385C22.8597 37.2945 22.8597 37.4042 22.9377 37.5504C23.0156 37.6967 22.9377 37.8429 23.3275 38.3182C23.7174 38.7936 23.4835 39.0861 23.1716 39.4151C22.8597 39.7442 22.1579 39.7808 21.7291 40.0733C21.3002 40.3658 22.002 40.5486 21.963 40.768C21.924 40.9874 21.2222 41.3896 21.0273 41.5358C20.8324 41.6821 20.8713 41.6455 20.8713 42.194C20.8713 42.7424 21.6121 42.5961 21.885 42.7058C22.1579 42.8155 21.963 42.9983 22.1189 43.0349C22.2749 43.0715 22.2359 42.8155 22.5088 42.7058C22.7817 42.5961 22.8597 42.8887 22.9767 43.0349C23.0936 43.1812 23.6004 43.3274 23.9123 43.4737C24.2242 43.6199 24.4972 43.9124 24.5361 44.0952C24.5751 44.2781 24.4972 44.3146 24.6921 44.4974C24.887 44.6803 25.7058 44.2049 25.7837 44.1318C25.8617 44.0587 25.9007 43.5102 25.9397 43.108C25.9787 42.7058 25.9397 42.5961 26.0566 41.7186C26.1736 40.8411 25.9787 39.7442 25.7058 38.757C25.4328 37.7698 24.5751 36.746 24.6921 36.417C24.809 36.0879 25.1209 36.0513 25.1209 36.0148C25.1209 35.9782 25.2769 35.9051 25.1599 35.7588C25.043 35.6126 24.809 35.5394 24.4972 35.3932C24.1853 35.2469 23.9903 35.2469 23.7174 35.2835Z" fill="#A2D89F"/>
<path d="M17.5182 33.1628C17.7053 32.3438 17.934 31.6759 18.025 31.4443C18.1549 31.4443 18.4305 31.4516 18.4928 31.4809C18.5552 31.5101 18.5448 31.5662 18.5318 31.5906C18.3889 32.0781 18.0874 33.1262 18.025 33.4188C17.9626 33.7113 18.3109 33.7844 18.4928 33.7844C19.2596 33.8575 20.9256 33.9891 21.4559 33.9306C22.1186 33.8575 22.2356 34.5522 22.5475 34.7716C22.8594 34.991 22.8984 34.8082 23.1713 34.8082C23.4442 34.8082 23.4832 34.991 23.5222 35.0641C23.5612 35.1372 23.5222 35.2469 23.2493 35.4663C22.9764 35.6857 22.6645 35.9782 22.6255 36.161C22.5865 36.3438 22.8204 36.4169 22.8204 36.6729C22.8204 36.9288 22.5865 37.2579 22.5865 37.4041C22.5865 37.5504 22.8204 37.9526 22.8984 38.1354C22.9764 38.3182 23.0153 38.501 23.1713 38.6107C23.3272 38.7204 23.1713 39.0495 23.0153 39.1957C22.8594 39.342 22.5865 39.4882 22.0017 39.6711C21.4169 39.8539 21.4559 39.927 21.3389 40.1464C21.2219 40.3658 21.5338 40.4755 21.6898 40.6583C21.8457 40.8411 21.3389 40.9873 20.949 41.1702C20.5592 41.353 20.5202 41.4627 20.5981 42.2671C20.6761 43.0714 21.7288 42.7789 21.8457 42.9252C21.9627 43.0714 21.8847 43.4736 22.1576 43.4371C22.4305 43.4005 22.3915 42.8521 22.5865 42.9252C22.7814 42.9983 22.7424 43.1811 23.1713 43.4005C23.6001 43.6199 23.7951 43.5468 24.068 43.7661C24.3409 43.9855 24.3019 44.4608 24.3799 44.7899C24.4579 45.119 24.4189 45.0824 24.2629 45.1921C24.107 45.3018 23.951 45.2287 23.7951 45.4846C23.6391 45.7406 24.029 45.9965 24.4579 46.1793C24.8867 46.3621 25.7834 45.704 25.9394 45.6674C26.0953 45.6309 26.0563 46.0331 26.0953 46.1793C26.1343 46.3256 26.2903 46.3987 26.6801 45.6674C27.07 44.9362 27.6158 43.693 27.7718 43.5468C27.9277 43.4005 28.9414 43.0714 29.3313 43.0714C29.7211 43.0714 30.189 43.1446 30.228 42.9618C30.2669 42.7789 30.4229 42.6327 30.5399 42.6693C30.6568 42.7058 31.0857 42.8886 31.2806 42.8521C31.4755 42.8155 31.3586 42.4133 31.6705 42.4133C31.9824 42.4133 32.0214 42.3767 32.0993 42.6327C32.1773 42.8886 31.9044 42.8521 31.7485 43.0714C31.5925 43.2908 31.8264 44.1318 31.6705 44.3512C31.5145 44.5705 31.3196 44.3877 31.0857 44.3877C30.8518 44.3877 30.7738 44.6802 30.5009 45.0459C30.228 45.4115 30.4229 46.2159 30.5009 46.3987C30.5788 46.5815 31.0077 47.1665 31.0857 47.3128C31.1637 47.459 31.0077 47.6419 30.8907 47.8612C30.7738 48.0806 30.7348 48.4097 31.0077 48.5925C31.2806 48.7753 31.3586 48.7753 31.4366 48.9947C31.5145 49.2141 31.4755 49.3603 31.3586 49.6528C31.2416 49.9453 31.0077 49.8722 30.6178 50.055C30.228 50.2378 30.6178 50.1647 30.072 50.3841C29.5262 50.6035 29.5652 50.4572 29.4872 50.3841C29.4092 50.311 29.3702 50.2013 29.0583 50.2378C28.7464 50.2744 28.7075 50.9691 28.5905 51.0422C28.4735 51.1154 28.4735 51.0422 28.3956 51.0057C28.3332 50.9764 28.2656 51.0179 28.2396 51.0422C27.9277 51.2982 27.4209 51.6638 27.031 51.4444C26.6411 51.225 26.9141 50.5303 26.7581 50.3841C26.6022 50.2378 26.3292 50.4207 26.1343 50.4572C25.9394 50.4938 26.1343 50.3841 26.2903 50.2378C26.4462 50.0916 26.4072 50.055 26.1343 49.8356C25.8614 49.6163 25.0037 48.9947 24.7308 48.9216C24.4579 48.8484 24.2629 49.4335 24.146 49.47C24.029 49.5066 24.068 49.3969 23.8731 49.3603C23.6781 49.3238 23.8341 49.5066 23.6001 49.6163C23.3662 49.726 23.0933 49.2872 22.7424 49.1409C22.3915 48.9947 22.4695 49.3238 22.1966 49.6163C21.9237 49.9088 21.8457 49.2141 21.5338 49.1409C21.2219 49.0678 20.7541 49.6528 20.5592 49.6894C20.3642 49.726 20.4812 49.4335 20.4422 49.2141C20.4032 48.9947 20.2083 49.1775 20.0133 49.1409C19.8184 49.1044 20.3642 48.0075 20.3642 47.6419C20.3642 47.2762 19.9743 46.7643 19.8184 46.6546C19.6624 46.545 18.9997 46.6181 18.8047 46.6546C18.6098 46.6912 18.103 44.8265 18.103 44.5705C18.103 44.3146 18.3369 44.2415 18.3369 44.0952C18.3369 43.949 17.5571 43.5102 17.3232 43.5468C17.0893 43.5833 16.7384 44.0221 16.5435 44.0952C16.3485 44.1683 15.8807 43.364 15.5298 43.2543C15.1789 43.1446 15.1789 43.364 14.984 43.4371C14.7891 43.5102 12.9177 41.2798 12.8007 41.0605C12.7071 40.885 13.5415 40.3048 13.9703 40.0367C14.4772 39.6467 15.5688 38.8155 15.8807 38.6107C16.1926 38.406 16.3226 37.9404 16.3485 37.7332L16.8554 35.6491C16.9983 35.1616 17.331 33.9818 17.5182 33.1628Z" fill="#A2D89F"/>
<path d="M32.7621 33.3093C32.4814 33.3678 32.5672 33.675 32.6451 33.8212C32.8791 34.1137 33.074 34.1137 33.3859 34.2965C33.6978 34.4794 33.5808 34.5159 33.6588 35.1009C33.7368 35.6859 34.3216 35.6494 34.7504 35.5397C35.1793 35.43 35.6861 34.7719 35.7641 34.4794C35.8421 34.1868 36.6218 34.1868 36.9727 34.4428C37.3236 34.6987 37.2066 35.0644 37.1676 35.5397C37.1286 36.015 37.1286 36.0516 37.2846 36.1613C37.4405 36.2709 37.4795 36.0881 37.5575 35.8322C37.6355 35.5762 38.4932 33.9675 39 33.3825C39.5069 32.7974 41.1443 32.1027 41.3003 31.9931C41.4562 31.8834 41.8851 31.5909 41.8071 31.5177C41.7291 31.4446 41.6902 31.4446 41.1445 31.4446H41.1443C40.5985 31.4446 40.6375 31.6274 40.3646 31.7737C40.0917 31.9199 39.9357 31.9931 39.7018 32.0296C39.4679 32.0662 39.4289 31.7737 39.5069 31.6274C39.5848 31.4812 39.6628 31.4446 39.6238 31.0424C39.5848 30.6402 39.3509 30.6402 39.234 30.5305C39.117 30.4208 38.961 30.0186 38.7271 29.9455C38.4932 29.8724 38.4932 30.0186 38.4152 30.2746C38.3372 30.5305 38.2593 30.4208 38.0643 30.7133C37.8694 31.0058 38.2593 31.5177 38.2593 31.7737C38.2593 32.0296 37.9474 32.0296 37.3626 32.2124C36.7778 32.3952 36.6218 31.8102 36.6218 31.5177C36.6218 31.2252 36.7388 31.2252 36.7778 31.1155C36.8168 31.0058 36.6998 30.8962 36.3879 30.8962C36.076 30.8962 35.8421 31.0424 35.6861 30.8962C35.5302 30.7499 35.6471 30.6036 35.2963 30.2015C34.9454 29.7993 34.8284 29.909 34.4385 29.653C34.0487 29.3971 33.9317 29.9455 33.9317 30.0186C33.9317 30.0918 34.1266 30.0186 34.2046 30.2015C34.2826 30.3843 34.3216 30.6037 34.2046 30.7865C34.0877 30.9693 33.9317 30.8962 33.9317 30.9693C33.9317 31.0424 34.0487 30.8962 34.4775 31.0424C34.9064 31.1887 34.8674 31.2618 34.8284 31.4446C34.7894 31.6274 34.4385 31.4446 34.2046 31.7006C33.9707 31.9565 34.1266 31.9931 34.3216 32.2856C34.5165 32.5781 34.4385 32.5049 34.4385 32.7243C34.4385 32.9437 34.3606 32.9071 34.1266 33.1265C33.8927 33.3459 33.113 33.2362 32.7621 33.3093Z" fill="#A2D89F"/>
<path d="M27.2263 33.7479C27.1327 33.9234 27.0833 34.4304 27.0703 34.6619C27.1873 34.8082 27.4212 34.8813 27.6551 34.9179C27.889 34.9544 28.045 34.4791 28.2399 34.2597C28.4349 34.0404 28.7078 34.1135 29.4095 34.5888C30.1113 35.0641 30.3062 34.991 30.4232 34.991C30.5402 34.991 30.8521 34.991 31.008 35.2104C31.164 35.4298 30.8131 35.4663 30.6571 35.6857C30.5012 35.9051 31.008 36.3804 31.2419 36.417C31.4759 36.4535 32.1386 35.6491 32.2946 35.5395C32.4505 35.4298 32.7234 35.1007 32.6065 34.991C32.4895 34.8813 31.9047 34.6254 31.7878 34.3329C31.6708 34.0404 31.7488 33.8575 31.7488 33.7844C31.7488 33.7113 31.5148 33.3457 30.93 33.236C30.3452 33.1263 30.5792 32.6875 30.4232 32.651C30.2673 32.6144 30.3452 32.651 29.9164 32.8338C29.4875 33.0166 29.0587 32.7972 28.8247 32.5778C28.5908 32.3585 28.6688 32.4681 28.5518 32.5047C28.4349 32.5413 28.4738 32.7972 28.123 33.0532C27.7721 33.3091 27.3432 33.5285 27.2263 33.7479Z" fill="#A2D89F"/>
<path d="M18.454 28.958C18.4229 28.8118 16.2318 27.7027 15.1401 27.1664C15.478 27.2883 16.2318 27.5613 16.5437 27.6783C16.9335 27.8246 18.1032 27.8611 19.1168 27.8611C20.1305 27.8611 20.6373 27.8611 21.1442 27.6783C21.651 27.4955 22.0798 27.6783 22.4697 27.6783C22.8596 27.6783 22.8986 27.5686 22.9376 27.4224C22.9766 27.2761 22.8206 26.9836 22.8986 26.8739C22.9766 26.7642 23.3274 26.9836 23.5224 27.0567C23.7173 27.1298 24.1852 27.0933 24.1852 27.4589C24.1852 27.7514 24.3151 27.8489 24.3801 27.8611C24.9259 28.2999 27.772 27.9708 28.4348 27.7149C29.0975 27.4589 29.0585 27.2395 29.1755 27.203C29.2925 27.1664 29.7603 27.4589 30.0332 27.4955C30.3061 27.532 30.3061 27.3858 30.735 27.3858C31.1639 27.3858 31.1249 27.4224 31.3198 27.6052C31.5147 27.788 31.7876 28.2633 31.8266 28.3364C31.8656 28.4096 31.9436 28.5924 31.8656 28.8118C31.7876 29.0311 31.2808 29.1774 31.2028 29.214C31.1249 29.2505 31.2028 29.0677 31.2028 28.958C31.2028 28.8483 31.1639 28.8483 31.0859 28.8118C31.0079 28.7752 30.9299 28.7386 30.5011 28.8118C30.0722 28.8849 30.1112 29.3602 30.0332 29.543C29.9553 29.7258 29.6434 29.6893 29.2925 29.6893C28.9416 29.6893 28.8246 29.5796 28.7856 29.543C28.7466 29.5065 28.5907 29.4699 28.4348 29.4333C28.2788 29.3968 27.4601 29.7258 26.7973 29.9818C26.1345 30.2377 26.4464 30.6399 26.4074 30.8227C26.3684 31.0056 25.9006 31.2981 25.6667 31.4443C25.4327 31.5906 24.731 32.8337 24.731 32.9434C24.731 33.0531 25.3938 33.7844 25.3938 33.894C25.3938 34.0037 24.9259 34.3328 24.731 34.4791C24.536 34.6253 24.614 34.9909 24.4581 35.1372C24.3021 35.2834 23.6393 34.8081 23.4834 34.6984C23.3274 34.5887 23.0545 34.6984 22.8986 34.6984C22.7426 34.6984 22.3528 34.2231 22.1188 33.9306C21.8849 33.6381 18.3761 33.7478 18.2201 33.6381C18.0642 33.5284 18.688 31.5906 18.688 31.4443C18.688 31.2981 18.1421 31.3712 18.0642 31.3712C17.9862 31.3712 18.3371 29.9818 18.454 29.5796C18.571 29.1774 18.493 29.1408 18.454 28.958Z" fill="#A2D89F"/>
<path d="M11.7343 8.01105C11.6092 8.18704 11.8908 8.25548 12.0472 8.26771C12.0863 8.29215 12.1958 8.3777 12.3209 8.52436C12.4774 8.70769 12.4774 8.63436 12.3991 8.78102C12.3209 8.92768 12.2036 9.11101 12.0472 9.40433C11.922 9.63899 11.5518 9.81987 11.3824 9.88098C11.239 10.3943 10.9444 11.4429 10.9131 11.5309C10.874 11.6409 10.6393 11.6042 10.6002 11.6776C10.5611 11.7509 10.3265 12.3009 10.2874 12.5575C10.2483 12.8142 10.2092 12.7042 10.0527 12.8875C9.8963 13.0709 10.0136 13.0709 9.9354 13.3275C9.85719 13.5842 9.73987 13.4008 9.62255 13.5475C9.50522 13.6942 9.58344 14.5008 9.58344 14.9408C9.58344 15.3808 9.54433 15.3808 9.3488 15.5274C9.15326 15.6741 9.03594 15.6008 9.03594 16.1141C9.03594 16.6274 9.30969 16.9574 9.3488 17.104C9.3879 17.2507 9.27058 17.6907 8.64487 18.2407C8.01916 18.7906 8.09737 19.3773 8.09737 19.7073C8.09737 20.0373 8.21469 19.7806 8.33201 20.2573C8.44933 20.7339 6.25934 21.1006 5.71184 21.1739C5.16434 21.2472 4.53862 21.1006 4.26487 21.1739C3.99112 21.2472 3.63916 21.6139 3.63916 21.6872C3.63916 21.7605 4.77327 23.2638 4.89059 23.4105C5.00791 23.5571 7.35433 23.0438 7.94094 23.0438C8.52755 23.0438 8.41023 22.8972 10.0918 24.4004C11.7734 25.9037 12.6729 26.1237 14.902 27.077C17.1311 28.0303 20.1815 27.6636 20.4943 27.6636C20.8072 27.6636 20.9636 27.6636 21.0418 27.517C21.12 27.3703 22.5279 27.5536 22.6452 27.4436C22.7625 27.3337 22.6061 27.2237 22.5279 26.857C22.4497 26.4904 23.0363 26.6737 23.5447 26.857C24.0531 27.0403 24.1313 27.0403 24.4441 27.077C24.757 27.1137 24.4441 27.407 24.6788 27.6636C24.9134 27.9203 25.2263 27.7003 26.5168 27.8103C27.8073 27.9203 28.785 27.3703 28.9415 27.2237C29.0979 27.077 29.0979 27.077 28.9415 26.9303C28.785 26.7837 28.5895 26.6003 28.4331 26.3437C28.2766 26.087 28.6677 25.0237 28.7068 24.7304C28.7459 24.4371 28.5113 24.4004 28.3548 24.0338C28.1984 23.6671 28.394 23.2638 28.4331 23.0438C28.4722 22.8238 28.394 22.7138 28.2766 22.6405C28.1593 22.5672 27.8856 22.8238 27.6118 22.8972C27.3381 22.9705 27.2598 22.9705 26.947 22.8238C26.6341 22.6772 26.1257 22.4205 25.9693 22.2005C25.8129 21.9805 25.6173 21.7239 25.6173 21.5039C25.6173 21.2839 25.8911 20.8806 25.9693 20.7706C26.0475 20.6606 25.9693 20.4406 25.8129 20.2573C25.6565 20.0739 25.6173 20.1106 25.1481 20.1106C24.6788 20.1106 24.2095 19.8539 24.0531 19.6339C23.8966 19.414 23.8184 18.9373 23.7793 18.7906C23.7402 18.644 23.8575 18.3873 23.9357 18.204C24.014 18.0207 24.0531 18.094 24.2877 17.9107C24.5223 17.7273 24.405 17.324 24.0531 17.324C23.7011 17.324 23.8184 17.654 23.662 17.764C23.5056 17.874 23.4665 17.984 23.1927 18.0207C22.919 18.0573 22.8016 18.0207 22.6061 17.654C22.4106 17.2874 22.4888 17.434 22.3715 17.104C22.2541 16.7741 22.1368 16.7007 22.0195 16.5907C21.9022 16.4807 21.7849 16.7007 21.7066 16.994C21.6441 17.2287 21.4981 17.3118 21.4329 17.324C21.2113 17.3363 20.6977 17.3534 20.4161 17.324C20.0641 17.2874 19.9859 17.214 19.7513 17.104C19.5166 16.994 19.634 16.8474 19.3993 16.5907C19.1647 16.3341 18.9691 16.4074 18.6563 16.2974C18.3434 16.1874 18.3434 16.1141 18.2652 15.8208C18.187 15.5274 18.187 15.6008 17.9915 15.3441C17.7959 15.0874 17.7568 15.0508 17.7568 14.7208C17.7568 14.3908 18.2652 14.0242 18.4999 13.7308C18.7345 13.4375 18.4999 13.4742 18.187 13.4742C17.8741 13.4742 17.7568 13.5842 17.5613 13.4742C17.3658 13.3642 17.2093 13.1442 17.1311 12.7775C17.0529 12.4109 17.3658 12.5209 17.6395 12.3376C17.9132 12.1542 17.8741 12.0442 17.9915 11.8242C18.1088 11.6042 18.0306 11.1643 17.9915 11.0176C17.9524 10.8709 17.6395 10.9443 17.3658 10.9076C17.092 10.8709 17.1311 10.6876 16.8574 10.431C16.5836 10.1743 16.5836 9.91764 16.5445 9.69765C16.5054 9.47766 16.3099 9.40433 16.1143 9.40433C15.9188 9.40433 15.7233 9.441 15.5668 9.40433C15.4104 9.36766 15.254 9.14767 14.9802 9.11101C14.7065 9.07434 14.4327 9.25767 14.0808 9.25767C13.7288 9.25767 13.3377 9.14767 13.064 8.96435C12.7902 8.78102 12.8684 8.63436 12.9075 8.52436C12.9466 8.41437 13.1031 8.3777 13.1422 8.34104C13.1735 8.3117 13.1552 8.27993 13.1422 8.26771C13.0249 8.18215 12.7276 7.98172 12.4774 7.86439C12.1645 7.71773 11.8908 7.79106 11.7343 8.01105Z" fill="#A2D89F"/>
<path d="M24.8868 34.6619C24.7309 34.9544 24.7179 35.1494 24.7309 35.2104C24.7309 35.2226 24.7387 35.2689 24.7698 35.3566C24.8088 35.4663 25.0428 35.4663 25.2377 35.5029C25.4326 35.5394 25.3936 35.6857 25.6276 35.7588C25.8615 35.8319 26.2903 35.6126 26.6022 35.2835C26.9141 34.9544 26.9141 34.2963 26.9141 34.2232C26.9141 34.15 26.9531 33.821 26.9921 33.7113C27.0311 33.6016 28.0448 32.9069 28.2397 32.6144C28.4346 32.3219 28.7465 32.1025 28.9415 32.3584C29.1364 32.6144 29.4483 32.6509 29.7212 32.6509C29.9941 32.6509 30.1891 32.3584 30.462 32.3584C30.7349 32.3584 30.5789 32.7972 30.8129 32.98C31.0468 33.1628 31.1637 32.9069 31.3977 33.1263C31.6316 33.3456 31.6706 33.3091 31.9045 33.6016C32.1384 33.8941 31.7485 33.821 32.0604 34.3329C32.3723 34.8447 32.7232 34.4791 32.7622 34.2963C32.8012 34.1135 32.6063 34.0038 32.4893 33.8941C32.3723 33.7844 32.3333 33.4919 32.5673 33.1994C32.8012 32.9069 33.7759 33.0166 33.9318 32.98C34.0878 32.9435 34.1268 32.6875 34.1268 32.5413C34.1268 32.395 34.0878 32.3584 33.8538 32.1391C33.6199 31.9197 33.1131 32.0659 32.6063 31.8831C32.0994 31.7003 31.8265 30.7862 31.7875 30.64C31.7485 30.4937 31.7875 30.1281 31.9045 29.8721C32.0215 29.6162 32.1384 29.4699 32.1384 29.2506C32.1384 29.0751 31.8785 29.1287 31.7485 29.1774C31.6186 29.2384 31.3275 29.3676 31.2027 29.3968C31.0468 29.4334 31.0078 29.3602 31.0078 29.1409C31.0078 28.9215 30.8518 28.9946 30.6569 28.9946C30.462 28.9946 30.423 29.0677 30.345 29.1774C30.267 29.2871 30.267 29.7259 30.1891 29.9453C30.1111 30.1646 29.6432 29.9453 29.3703 29.9087C29.0974 29.8721 28.9025 29.9453 28.7465 29.9453C28.5906 29.9453 28.6296 29.7625 28.3956 29.6528C28.1617 29.5431 28.0448 29.8356 27.304 30.0184C26.5633 30.2012 26.7192 30.3475 26.6412 30.4572C26.5633 30.5668 26.7582 30.8594 26.4853 31.0787C26.2124 31.2981 25.3157 32.1391 25.1207 32.5047C24.9258 32.8703 25.1207 33.1263 25.3157 33.3091C25.5106 33.4919 25.5886 33.6747 25.6276 33.821C25.6665 33.9672 25.0817 34.2963 24.8868 34.6619Z" fill="#A2D89F"/>
</g>
</svg>
