<svg width="188" height="56" viewBox="0 0 188 56" fill="none" xmlns="http://www.w3.org/2000/svg">
<rect width="180" height="48" transform="translate(4)" fill="white"/>
<g filter="url(#filter0_d_227_3003)">
<path d="M82.4844 27.7734V29H76.7969V27.7734H82.4844ZM77.0938 17.625V29H75.5859V17.625H77.0938ZM83.6094 24.8672V24.6875C83.6094 24.0781 83.6979 23.513 83.875 22.9922C84.0521 22.4661 84.3073 22.0104 84.6406 21.625C84.974 21.2344 85.3776 20.9323 85.8516 20.7188C86.3255 20.5 86.8568 20.3906 87.4453 20.3906C88.0391 20.3906 88.5729 20.5 89.0469 20.7188C89.526 20.9323 89.9323 21.2344 90.2656 21.625C90.6042 22.0104 90.862 22.4661 91.0391 22.9922C91.2161 23.513 91.3047 24.0781 91.3047 24.6875V24.8672C91.3047 25.4766 91.2161 26.0417 91.0391 26.5625C90.862 27.0833 90.6042 27.5391 90.2656 27.9297C89.9323 28.3151 89.5286 28.6172 89.0547 28.8359C88.5859 29.0495 88.0547 29.1562 87.4609 29.1562C86.8672 29.1562 86.3333 29.0495 85.8594 28.8359C85.3854 28.6172 84.9792 28.3151 84.6406 27.9297C84.3073 27.5391 84.0521 27.0833 83.875 26.5625C83.6979 26.0417 83.6094 25.4766 83.6094 24.8672ZM85.0547 24.6875V24.8672C85.0547 25.2891 85.1042 25.6875 85.2031 26.0625C85.3021 26.4323 85.4505 26.7604 85.6484 27.0469C85.8516 27.3333 86.1042 27.5599 86.4062 27.7266C86.7083 27.888 87.0599 27.9688 87.4609 27.9688C87.8568 27.9688 88.2031 27.888 88.5 27.7266C88.8021 27.5599 89.0521 27.3333 89.25 27.0469C89.4479 26.7604 89.5964 26.4323 89.6953 26.0625C89.7995 25.6875 89.8516 25.2891 89.8516 24.8672V24.6875C89.8516 24.2708 89.7995 23.8776 89.6953 23.5078C89.5964 23.1328 89.4453 22.8021 89.2422 22.5156C89.0443 22.224 88.7943 21.9948 88.4922 21.8281C88.1953 21.6615 87.8464 21.5781 87.4453 21.5781C87.0495 21.5781 86.7005 21.6615 86.3984 21.8281C86.1016 21.9948 85.8516 22.224 85.6484 22.5156C85.4505 22.8021 85.3021 23.1328 85.2031 23.5078C85.1042 23.8776 85.0547 24.2708 85.0547 24.6875ZM98.5938 20.5469H99.9062V28.8203C99.9062 29.5651 99.7552 30.2005 99.4531 30.7266C99.151 31.2526 98.7292 31.651 98.1875 31.9219C97.651 32.1979 97.0312 32.3359 96.3281 32.3359C96.0365 32.3359 95.6927 32.2891 95.2969 32.1953C94.9062 32.1068 94.5208 31.9531 94.1406 31.7344C93.7656 31.5208 93.4505 31.2318 93.1953 30.8672L93.9531 30.0078C94.3073 30.4349 94.6771 30.7318 95.0625 30.8984C95.4531 31.0651 95.8385 31.1484 96.2188 31.1484C96.6771 31.1484 97.0729 31.0625 97.4062 30.8906C97.7396 30.7188 97.9974 30.4635 98.1797 30.125C98.3672 29.7917 98.4609 29.3802 98.4609 28.8906V22.4062L98.5938 20.5469ZM92.7734 24.8672V24.7031C92.7734 24.0573 92.849 23.4714 93 22.9453C93.1562 22.4141 93.3776 21.9583 93.6641 21.5781C93.9557 21.1979 94.3073 20.9062 94.7188 20.7031C95.1302 20.4948 95.5938 20.3906 96.1094 20.3906C96.6406 20.3906 97.1042 20.4844 97.5 20.6719C97.901 20.8542 98.2396 21.1224 98.5156 21.4766C98.7969 21.8255 99.0182 22.2474 99.1797 22.7422C99.3411 23.237 99.4531 23.7969 99.5156 24.4219V25.1406C99.4583 25.7604 99.3464 26.3177 99.1797 26.8125C99.0182 27.3073 98.7969 27.7292 98.5156 28.0781C98.2396 28.4271 97.901 28.6953 97.5 28.8828C97.099 29.0651 96.6302 29.1562 96.0938 29.1562C95.5885 29.1562 95.1302 29.0495 94.7188 28.8359C94.3125 28.6224 93.9635 28.3229 93.6719 27.9375C93.3802 27.5521 93.1562 27.099 93 26.5781C92.849 26.0521 92.7734 25.4818 92.7734 24.8672ZM94.2188 24.7031V24.8672C94.2188 25.2891 94.2604 25.6849 94.3438 26.0547C94.4323 26.4245 94.5651 26.75 94.7422 27.0312C94.9245 27.3125 95.1562 27.5339 95.4375 27.6953C95.7188 27.8516 96.0547 27.9297 96.4453 27.9297C96.9245 27.9297 97.3203 27.8281 97.6328 27.625C97.9453 27.4219 98.1927 27.1536 98.375 26.8203C98.5625 26.487 98.7083 26.125 98.8125 25.7344V23.8516C98.7552 23.5651 98.6667 23.2891 98.5469 23.0234C98.4323 22.7526 98.2812 22.513 98.0938 22.3047C97.9115 22.0911 97.6849 21.9219 97.4141 21.7969C97.1432 21.6719 96.8255 21.6094 96.4609 21.6094C96.0651 21.6094 95.724 21.6927 95.4375 21.8594C95.1562 22.0208 94.9245 22.2448 94.7422 22.5312C94.5651 22.8125 94.4323 23.1406 94.3438 23.5156C94.2604 23.8854 94.2188 24.2812 94.2188 24.7031ZM103.672 20.5469V29H102.219V20.5469H103.672ZM102.109 18.3047C102.109 18.0703 102.18 17.8724 102.32 17.7109C102.466 17.5495 102.68 17.4688 102.961 17.4688C103.237 17.4688 103.448 17.5495 103.594 17.7109C103.745 17.8724 103.82 18.0703 103.82 18.3047C103.82 18.5286 103.745 18.7214 103.594 18.8828C103.448 19.0391 103.237 19.1172 102.961 19.1172C102.68 19.1172 102.466 19.0391 102.32 18.8828C102.18 18.7214 102.109 18.5286 102.109 18.3047ZM107.438 22.3516V29H105.992V20.5469H107.359L107.438 22.3516ZM107.094 24.4531L106.492 24.4297C106.497 23.8516 106.583 23.3177 106.75 22.8281C106.917 22.3333 107.151 21.9036 107.453 21.5391C107.755 21.1745 108.115 20.8932 108.531 20.6953C108.953 20.4922 109.419 20.3906 109.93 20.3906C110.346 20.3906 110.721 20.4479 111.055 20.5625C111.388 20.6719 111.672 20.849 111.906 21.0938C112.146 21.3385 112.328 21.6562 112.453 22.0469C112.578 22.4323 112.641 22.9036 112.641 23.4609V29H111.188V23.4453C111.188 23.0026 111.122 22.6484 110.992 22.3828C110.862 22.112 110.672 21.9167 110.422 21.7969C110.172 21.6719 109.865 21.6094 109.5 21.6094C109.141 21.6094 108.812 21.6849 108.516 21.8359C108.224 21.987 107.971 22.1953 107.758 22.4609C107.549 22.7266 107.385 23.0312 107.266 23.375C107.151 23.7135 107.094 24.0729 107.094 24.4531Z" fill="#FA897B"/>
<rect x="4.5" y="0.5" width="179" height="47" rx="7.5" stroke="#FA897B" shape-rendering="crispEdges"/>
</g>
<defs>
<filter id="filter0_d_227_3003" x="0" y="0" width="188" height="56" filterUnits="userSpaceOnUse" color-interpolation-filters="sRGB">
<feFlood flood-opacity="0" result="BackgroundImageFix"/>
<feColorMatrix in="SourceAlpha" type="matrix" values="0 0 0 0 0 0 0 0 0 0 0 0 0 0 0 0 0 0 127 0" result="hardAlpha"/>
<feOffset dy="4"/>
<feGaussianBlur stdDeviation="2"/>
<feComposite in2="hardAlpha" operator="out"/>
<feColorMatrix type="matrix" values="0 0 0 0 0 0 0 0 0 0 0 0 0 0 0 0 0 0 0.25 0"/>
<feBlend mode="normal" in2="BackgroundImageFix" result="effect1_dropShadow_227_3003"/>
<feBlend mode="normal" in="SourceGraphic" in2="effect1_dropShadow_227_3003" result="shape"/>
</filter>
</defs>
</svg>
