<svg width="226" height="36" viewBox="0 0 226 36" fill="none" xmlns="http://www.w3.org/2000/svg">
<path d="M8.82812 0.875V35H0.601562V0.875H8.82812ZM22.0938 15.0781V21.4062H6.48438V15.0781H22.0938ZM23.4297 0.875V7.22656H6.48438V0.875H23.4297ZM55.7266 17.2578V18.6406C55.7266 21.25 55.3594 23.5938 54.625 25.6719C53.9062 27.7344 52.8828 29.5 51.5547 30.9688C50.2266 32.4219 48.6562 33.5391 46.8438 34.3203C45.0312 35.0859 43.0312 35.4688 40.8438 35.4688C38.6406 35.4688 36.625 35.0859 34.7969 34.3203C32.9844 33.5391 31.4062 32.4219 30.0625 30.9688C28.7344 29.5 27.7031 27.7344 26.9688 25.6719C26.25 23.5938 25.8906 21.25 25.8906 18.6406V17.2578C25.8906 14.6484 26.25 12.3047 26.9688 10.2266C27.7031 8.14844 28.7266 6.38281 30.0391 4.92969C31.3672 3.46094 32.9375 2.34375 34.75 1.57812C36.5781 0.796875 38.5938 0.40625 40.7969 0.40625C42.9844 0.40625 44.9844 0.796875 46.7969 1.57812C48.625 2.34375 50.2031 3.46094 51.5312 4.92969C52.8594 6.38281 53.8906 8.14844 54.625 10.2266C55.3594 12.3047 55.7266 14.6484 55.7266 17.2578ZM47.3828 18.6406V17.2109C47.3828 15.5234 47.2344 14.0391 46.9375 12.7578C46.6562 11.4609 46.2344 10.375 45.6719 9.5C45.1094 8.625 44.4141 7.96875 43.5859 7.53125C42.7734 7.07813 41.8438 6.85156 40.7969 6.85156C39.7031 6.85156 38.75 7.07813 37.9375 7.53125C37.125 7.96875 36.4453 8.625 35.8984 9.5C35.3516 10.375 34.9375 11.4609 34.6562 12.7578C34.3906 14.0391 34.2578 15.5234 34.2578 17.2109V18.6406C34.2578 20.3125 34.3906 21.7969 34.6562 23.0938C34.9375 24.375 35.3516 25.4609 35.8984 26.3516C36.4609 27.2422 37.1484 27.9141 37.9609 28.3672C38.7891 28.8203 39.75 29.0469 40.8438 29.0469C41.8906 29.0469 42.8203 28.8203 43.6328 28.3672C44.4453 27.9141 45.125 27.2422 45.6719 26.3516C46.2344 25.4609 46.6562 24.375 46.9375 23.0938C47.2344 21.7969 47.3828 20.3125 47.3828 18.6406ZM79.3984 23.4453H87.6016C87.4922 25.8203 86.8516 27.9141 85.6797 29.7266C84.5078 31.5391 82.8828 32.9531 80.8047 33.9688C78.7422 34.9688 76.3047 35.4688 73.4922 35.4688C71.2109 35.4688 69.1719 35.0859 67.375 34.3203C65.5938 33.5547 64.0781 32.4531 62.8281 31.0156C61.5938 29.5781 60.6484 27.8359 59.9922 25.7891C59.3516 23.7422 59.0312 21.4375 59.0312 18.875V17.0234C59.0312 14.4609 59.3672 12.1562 60.0391 10.1094C60.7266 8.04688 61.6953 6.29687 62.9453 4.85938C64.2109 3.40625 65.7266 2.29688 67.4922 1.53125C69.2578 0.765625 71.2188 0.382812 73.375 0.382812C76.3438 0.382812 78.8516 0.914063 80.8984 1.97656C82.9453 3.03906 84.5312 4.5 85.6562 6.35938C86.7812 8.20313 87.4453 10.3047 87.6484 12.6641H79.4453C79.4141 11.3828 79.1953 10.3125 78.7891 9.45312C78.3828 8.57813 77.7422 7.92188 76.8672 7.48438C75.9922 7.04687 74.8281 6.82812 73.375 6.82812C72.3594 6.82812 71.4766 7.01562 70.7266 7.39062C69.9766 7.76562 69.3516 8.35937 68.8516 9.17188C68.3516 9.98438 67.9766 11.0391 67.7266 12.3359C67.4922 13.6172 67.375 15.1641 67.375 16.9766V18.875C67.375 20.6875 67.4844 22.2344 67.7031 23.5156C67.9219 24.7969 68.2734 25.8438 68.7578 26.6562C69.2422 27.4688 69.8672 28.0703 70.6328 28.4609C71.4141 28.8359 72.3672 29.0234 73.4922 29.0234C74.7422 29.0234 75.7969 28.8281 76.6562 28.4375C77.5156 28.0312 78.1797 27.4219 78.6484 26.6094C79.1172 25.7812 79.3672 24.7266 79.3984 23.4453ZM110.008 0.875H118.234V23.1641C118.234 25.8203 117.68 28.0703 116.57 29.9141C115.461 31.7422 113.906 33.125 111.906 34.0625C109.906 35 107.555 35.4688 104.852 35.4688C102.18 35.4688 99.8281 35 97.7969 34.0625C95.7812 33.125 94.2031 31.7422 93.0625 29.9141C91.9375 28.0703 91.375 25.8203 91.375 23.1641V0.875H99.625V23.1641C99.625 24.5703 99.8281 25.7188 100.234 26.6094C100.641 27.4844 101.234 28.125 102.016 28.5312C102.797 28.9375 103.742 29.1406 104.852 29.1406C105.977 29.1406 106.922 28.9375 107.688 28.5312C108.453 28.125 109.031 27.4844 109.422 26.6094C109.812 25.7188 110.008 24.5703 110.008 23.1641V0.875ZM140.992 25.9297C140.992 25.3984 140.914 24.9219 140.758 24.5C140.602 24.0625 140.312 23.6562 139.891 23.2812C139.469 22.9062 138.859 22.5312 138.062 22.1562C137.281 21.7656 136.25 21.3594 134.969 20.9375C133.469 20.4375 132.023 19.875 130.633 19.25C129.242 18.6094 128 17.8672 126.906 17.0234C125.812 16.1641 124.945 15.1641 124.305 14.0234C123.664 12.8672 123.344 11.5234 123.344 9.99219C123.344 8.52344 123.672 7.20312 124.328 6.03125C124.984 4.84375 125.898 3.83594 127.07 3.00781C128.258 2.16406 129.648 1.52344 131.242 1.08594C132.836 0.632813 134.578 0.40625 136.469 0.40625C138.969 0.40625 141.172 0.84375 143.078 1.71875C145 2.57813 146.5 3.80469 147.578 5.39844C148.672 6.97656 149.219 8.84375 149.219 11H141.039C141.039 10.1406 140.859 9.38281 140.5 8.72656C140.156 8.07031 139.633 7.55469 138.93 7.17969C138.227 6.80469 137.344 6.61719 136.281 6.61719C135.25 6.61719 134.383 6.77344 133.68 7.08594C132.977 7.39844 132.445 7.82031 132.086 8.35156C131.727 8.86719 131.547 9.4375 131.547 10.0625C131.547 10.5781 131.688 11.0469 131.969 11.4688C132.266 11.875 132.68 12.2578 133.211 12.6172C133.758 12.9766 134.414 13.3203 135.18 13.6484C135.961 13.9766 136.836 14.2969 137.805 14.6094C139.617 15.1875 141.227 15.8359 142.633 16.5547C144.055 17.2578 145.25 18.0625 146.219 18.9688C147.203 19.8594 147.945 20.875 148.445 22.0156C148.961 23.1562 149.219 24.4453 149.219 25.8828C149.219 27.4141 148.922 28.7734 148.328 29.9609C147.734 31.1484 146.883 32.1562 145.773 32.9844C144.664 33.7969 143.336 34.4141 141.789 34.8359C140.242 35.2578 138.516 35.4688 136.609 35.4688C134.859 35.4688 133.133 35.25 131.43 34.8125C129.742 34.3594 128.211 33.6719 126.836 32.75C125.461 31.8125 124.359 30.6172 123.531 29.1641C122.719 27.6953 122.312 25.9531 122.312 23.9375H130.562C130.562 24.9375 130.695 25.7812 130.961 26.4688C131.227 27.1562 131.617 27.7109 132.133 28.1328C132.648 28.5391 133.281 28.8359 134.031 29.0234C134.781 29.1953 135.641 29.2812 136.609 29.2812C137.656 29.2812 138.5 29.1328 139.141 28.8359C139.781 28.5234 140.25 28.1172 140.547 27.6172C140.844 27.1016 140.992 26.5391 140.992 25.9297ZM162.203 0.875V35H154V0.875H162.203ZM183.812 0.875V35H175.586V0.875H183.812ZM194.078 0.875V7.22656H165.555V0.875H194.078ZM204.133 0.875L210.414 15.6875L216.719 0.875H225.578L214.609 22.7422V35H206.242V22.7422L195.25 0.875H204.133Z" fill="url(#paint0_linear_206_795)"/>
<defs>
<linearGradient id="paint0_linear_206_795" x1="-2" y1="43" x2="226" y2="43" gradientUnits="userSpaceOnUse">
<stop stop-color="#FA897B"/>
<stop offset="1" stop-color="#FFDD94"/>
</linearGradient>
</defs>
</svg>
