<svg width="259" height="64" viewBox="0 0 259 64" fill="none" xmlns="http://www.w3.org/2000/svg">
<path d="M26.8281 16.875V51H18.6016V16.875H26.8281ZM40.0938 31.0781V37.4062H24.4844V31.0781H40.0938ZM41.4297 16.875V23.2266H24.4844V16.875H41.4297ZM73.7266 33.2578V34.6406C73.7266 37.25 73.3594 39.5938 72.625 41.6719C71.9062 43.7344 70.8828 45.5 69.5547 46.9688C68.2266 48.4219 66.6562 49.5391 64.8438 50.3203C63.0312 51.0859 61.0312 51.4688 58.8438 51.4688C56.6406 51.4688 54.625 51.0859 52.7969 50.3203C50.9844 49.5391 49.4062 48.4219 48.0625 46.9688C46.7344 45.5 45.7031 43.7344 44.9688 41.6719C44.25 39.5938 43.8906 37.25 43.8906 34.6406V33.2578C43.8906 30.6484 44.25 28.3047 44.9688 26.2266C45.7031 24.1484 46.7266 22.3828 48.0391 20.9297C49.3672 19.4609 50.9375 18.3438 52.75 17.5781C54.5781 16.7969 56.5938 16.4062 58.7969 16.4062C60.9844 16.4062 62.9844 16.7969 64.7969 17.5781C66.625 18.3438 68.2031 19.4609 69.5312 20.9297C70.8594 22.3828 71.8906 24.1484 72.625 26.2266C73.3594 28.3047 73.7266 30.6484 73.7266 33.2578ZM65.3828 34.6406V33.2109C65.3828 31.5234 65.2344 30.0391 64.9375 28.7578C64.6562 27.4609 64.2344 26.375 63.6719 25.5C63.1094 24.625 62.4141 23.9688 61.5859 23.5312C60.7734 23.0781 59.8438 22.8516 58.7969 22.8516C57.7031 22.8516 56.75 23.0781 55.9375 23.5312C55.125 23.9688 54.4453 24.625 53.8984 25.5C53.3516 26.375 52.9375 27.4609 52.6562 28.7578C52.3906 30.0391 52.2578 31.5234 52.2578 33.2109V34.6406C52.2578 36.3125 52.3906 37.7969 52.6562 39.0938C52.9375 40.375 53.3516 41.4609 53.8984 42.3516C54.4609 43.2422 55.1484 43.9141 55.9609 44.3672C56.7891 44.8203 57.75 45.0469 58.8438 45.0469C59.8906 45.0469 60.8203 44.8203 61.6328 44.3672C62.4453 43.9141 63.125 43.2422 63.6719 42.3516C64.2344 41.4609 64.6562 40.375 64.9375 39.0938C65.2344 37.7969 65.3828 36.3125 65.3828 34.6406ZM97.3984 39.4453H105.602C105.492 41.8203 104.852 43.9141 103.68 45.7266C102.508 47.5391 100.883 48.9531 98.8047 49.9688C96.7422 50.9688 94.3047 51.4688 91.4922 51.4688C89.2109 51.4688 87.1719 51.0859 85.375 50.3203C83.5938 49.5547 82.0781 48.4531 80.8281 47.0156C79.5938 45.5781 78.6484 43.8359 77.9922 41.7891C77.3516 39.7422 77.0312 37.4375 77.0312 34.875V33.0234C77.0312 30.4609 77.3672 28.1562 78.0391 26.1094C78.7266 24.0469 79.6953 22.2969 80.9453 20.8594C82.2109 19.4062 83.7266 18.2969 85.4922 17.5312C87.2578 16.7656 89.2188 16.3828 91.375 16.3828C94.3438 16.3828 96.8516 16.9141 98.8984 17.9766C100.945 19.0391 102.531 20.5 103.656 22.3594C104.781 24.2031 105.445 26.3047 105.648 28.6641H97.4453C97.4141 27.3828 97.1953 26.3125 96.7891 25.4531C96.3828 24.5781 95.7422 23.9219 94.8672 23.4844C93.9922 23.0469 92.8281 22.8281 91.375 22.8281C90.3594 22.8281 89.4766 23.0156 88.7266 23.3906C87.9766 23.7656 87.3516 24.3594 86.8516 25.1719C86.3516 25.9844 85.9766 27.0391 85.7266 28.3359C85.4922 29.6172 85.375 31.1641 85.375 32.9766V34.875C85.375 36.6875 85.4844 38.2344 85.7031 39.5156C85.9219 40.7969 86.2734 41.8438 86.7578 42.6562C87.2422 43.4688 87.8672 44.0703 88.6328 44.4609C89.4141 44.8359 90.3672 45.0234 91.4922 45.0234C92.7422 45.0234 93.7969 44.8281 94.6562 44.4375C95.5156 44.0312 96.1797 43.4219 96.6484 42.6094C97.1172 41.7812 97.3672 40.7266 97.3984 39.4453ZM128.008 16.875H136.234V39.1641C136.234 41.8203 135.68 44.0703 134.57 45.9141C133.461 47.7422 131.906 49.125 129.906 50.0625C127.906 51 125.555 51.4688 122.852 51.4688C120.18 51.4688 117.828 51 115.797 50.0625C113.781 49.125 112.203 47.7422 111.062 45.9141C109.938 44.0703 109.375 41.8203 109.375 39.1641V16.875H117.625V39.1641C117.625 40.5703 117.828 41.7188 118.234 42.6094C118.641 43.4844 119.234 44.125 120.016 44.5312C120.797 44.9375 121.742 45.1406 122.852 45.1406C123.977 45.1406 124.922 44.9375 125.688 44.5312C126.453 44.125 127.031 43.4844 127.422 42.6094C127.812 41.7188 128.008 40.5703 128.008 39.1641V16.875ZM158.992 41.9297C158.992 41.3984 158.914 40.9219 158.758 40.5C158.602 40.0625 158.312 39.6562 157.891 39.2812C157.469 38.9062 156.859 38.5312 156.062 38.1562C155.281 37.7656 154.25 37.3594 152.969 36.9375C151.469 36.4375 150.023 35.875 148.633 35.25C147.242 34.6094 146 33.8672 144.906 33.0234C143.812 32.1641 142.945 31.1641 142.305 30.0234C141.664 28.8672 141.344 27.5234 141.344 25.9922C141.344 24.5234 141.672 23.2031 142.328 22.0312C142.984 20.8438 143.898 19.8359 145.07 19.0078C146.258 18.1641 147.648 17.5234 149.242 17.0859C150.836 16.6328 152.578 16.4062 154.469 16.4062C156.969 16.4062 159.172 16.8438 161.078 17.7188C163 18.5781 164.5 19.8047 165.578 21.3984C166.672 22.9766 167.219 24.8438 167.219 27H159.039C159.039 26.1406 158.859 25.3828 158.5 24.7266C158.156 24.0703 157.633 23.5547 156.93 23.1797C156.227 22.8047 155.344 22.6172 154.281 22.6172C153.25 22.6172 152.383 22.7734 151.68 23.0859C150.977 23.3984 150.445 23.8203 150.086 24.3516C149.727 24.8672 149.547 25.4375 149.547 26.0625C149.547 26.5781 149.688 27.0469 149.969 27.4688C150.266 27.875 150.68 28.2578 151.211 28.6172C151.758 28.9766 152.414 29.3203 153.18 29.6484C153.961 29.9766 154.836 30.2969 155.805 30.6094C157.617 31.1875 159.227 31.8359 160.633 32.5547C162.055 33.2578 163.25 34.0625 164.219 34.9688C165.203 35.8594 165.945 36.875 166.445 38.0156C166.961 39.1562 167.219 40.4453 167.219 41.8828C167.219 43.4141 166.922 44.7734 166.328 45.9609C165.734 47.1484 164.883 48.1562 163.773 48.9844C162.664 49.7969 161.336 50.4141 159.789 50.8359C158.242 51.2578 156.516 51.4688 154.609 51.4688C152.859 51.4688 151.133 51.25 149.43 50.8125C147.742 50.3594 146.211 49.6719 144.836 48.75C143.461 47.8125 142.359 46.6172 141.531 45.1641C140.719 43.6953 140.312 41.9531 140.312 39.9375H148.562C148.562 40.9375 148.695 41.7812 148.961 42.4688C149.227 43.1562 149.617 43.7109 150.133 44.1328C150.648 44.5391 151.281 44.8359 152.031 45.0234C152.781 45.1953 153.641 45.2812 154.609 45.2812C155.656 45.2812 156.5 45.1328 157.141 44.8359C157.781 44.5234 158.25 44.1172 158.547 43.6172C158.844 43.1016 158.992 42.5391 158.992 41.9297ZM180.203 16.875V51H172V16.875H180.203ZM201.812 16.875V51H193.586V16.875H201.812ZM212.078 16.875V23.2266H183.555V16.875H212.078ZM222.133 16.875L228.414 31.6875L234.719 16.875H243.578L232.609 38.7422V51H224.242V38.7422L213.25 16.875H222.133Z" fill="url(#paint0_linear_208_1318)"/>
<defs>
<linearGradient id="paint0_linear_208_1318" x1="16" y1="60.6901" x2="244" y2="60.6901" gradientUnits="userSpaceOnUse">
<stop stop-color="#FA897B"/>
<stop offset="1" stop-color="#FFDD94"/>
</linearGradient>
</defs>
</svg>

