<svg width="1533" height="836" viewBox="0 0 1533 836" fill="none" xmlns="http://www.w3.org/2000/svg">
<path d="M714.981 512.526L1522.45 678.5V834.73H714.981V512.526Z" fill="#9DDAF8"/>
<path d="M732.573 625.682C725.871 611.899 735.365 601.145 740.95 597.491L855.716 719.26L962.942 658.571L972.575 662.486C974.111 664.966 977.434 670.317 978.439 671.883C979.696 673.841 988.492 678.931 988.073 684.021C987.654 689.111 995.193 695.376 999.382 691.46C1003.57 687.545 1014.46 683.238 1014.46 689.503C1014.46 695.767 1015.72 702.424 1016.55 705.164C1017.39 707.905 1027.03 719.651 1047.55 725.916C1068.07 732.181 1047.97 732.181 1057.6 742.752C1067.24 753.324 1057.18 754.107 1054.67 757.239C1052.16 760.371 1047.55 757.239 1041.27 768.594C1040.43 775.642 1031.63 761.155 1027.03 766.245C1022.42 771.335 1024.09 775.642 1027.03 784.255C1029.96 792.869 1013.87 789.039 1027.03 794.827C1041.27 801.093 1058.4 796.454 1068.07 792.869C1082.14 787.66 1111.63 763.112 1130.48 754.107C1149.33 745.101 1153.94 748.625 1168.6 750.583C1183.26 752.541 1188.28 768.202 1197.08 775.642C1205.88 783.081 1231.85 754.107 1244.41 736.096C1256.98 718.085 1262.42 718.085 1278.76 709.08C1295.09 700.074 1300.96 693.418 1322.74 690.286C1344.52 687.153 1370.49 693.026 1376.77 690.286C1383.05 687.545 1387.24 690.286 1390.17 682.455C1393.1 674.624 1401.06 669.926 1408.6 666.793C1416.14 663.661 1421.17 666.402 1428.71 666.793C1434.74 667.107 1493.77 682.585 1522.53 690.286V0H0V835.116H784.181C784.181 822.065 774.458 754.655 774.458 750.583C774.458 745.493 770.688 739.228 766.5 736.096C762.311 732.964 745.557 712.995 740.95 708.688C736.343 704.381 737.18 695.376 735.924 690.286C734.667 685.196 728.803 663.661 732.573 655.83C736.343 647.999 740.95 642.909 732.573 625.682Z" fill="#8A8894"/>
<path d="M764.406 519.574C768.092 518.008 768.175 513.179 767.757 510.96C768.455 510.96 770.689 511.195 774.039 512.135C778.228 513.309 785.767 520.748 788.28 522.315C790.794 523.881 795.401 525.055 798.333 527.013C801.265 528.971 801.265 536.019 802.103 538.759C802.94 541.5 810.061 548.548 813.412 551.289C816.762 554.029 822.626 554.029 825.139 553.246C827.653 552.463 827.234 551.289 828.071 549.331C828.909 547.373 827.653 545.024 830.584 543.066C833.516 541.109 837.705 542.675 841.056 543.849C844.407 545.024 844.407 545.024 846.082 545.024C847.757 545.024 848.595 543.458 850.271 541.892C851.946 540.325 854.04 540.717 856.972 537.193C859.904 533.669 865.768 534.844 867.025 536.019C868.03 536.958 868.281 540.325 868.281 541.892L873.307 545.024C874.704 546.46 878.082 549.722 880.428 551.289C883.36 553.246 884.616 555.596 887.548 560.294C890.48 564.993 891.737 570.083 893.412 570.083C895.088 570.083 898.439 568.125 900.533 568.125C902.627 568.125 906.397 575.956 907.653 575.956C908.91 575.956 914.774 577.522 916.449 577.913C918.125 578.305 925.245 582.22 929.015 582.22C932.785 582.22 940.324 584.57 943.675 586.136C947.025 587.702 947.863 592.792 951.214 592.4C954.565 592.009 957.916 594.358 961.266 593.575C964.617 592.792 963.78 585.744 963.361 582.22C962.942 578.696 962.942 581.437 966.293 575.956C969.644 570.474 971.738 572.823 975.507 570.083C979.277 567.342 982.628 566.167 986.816 568.125C991.005 570.083 991.843 578.696 993.518 582.22C995.194 585.744 996.869 586.919 997.707 589.268C998.544 591.617 991.843 600.231 985.56 607.279C979.277 614.327 984.722 621.766 991.843 622.94C998.963 624.115 998.544 627.247 998.544 630.38C998.544 633.512 983.885 648.782 981.371 652.306C978.858 655.83 968.387 657.788 970.481 660.92C972.576 664.052 970.9 694.592 970.481 698.116C970.062 701.64 969.225 700.857 965.874 703.989C962.523 707.122 957.497 709.079 950.795 709.079C944.094 709.079 941.999 710.254 938.648 716.127C936.554 719.651 950.795 725.916 954.146 728.656C957.497 731.397 960.01 736.096 960.01 740.403C960.01 744.71 958.335 748.625 945.769 756.064C933.203 763.503 928.177 763.112 900.533 772.509C872.889 781.906 850.689 786.604 841.894 786.996C833.098 787.387 825.977 790.911 822.626 790.128C819.275 789.345 811.736 770.551 805.872 758.413C800.008 746.276 785.767 735.704 770.27 721.217C754.772 706.73 737.599 669.142 739.275 666.01C740.95 662.878 745.139 645.258 744.72 640.168C744.301 635.078 741.369 619.417 739.275 613.152C737.18 606.887 741.369 598.273 742.207 596.316C743.044 594.358 747.233 593.967 751.84 593.183C756.448 592.4 757.704 593.967 760.217 596.316C762.73 598.665 764.825 597.882 768.175 597.49C771.526 597.099 773.202 595.533 774.877 593.967C776.553 592.4 777.39 581.437 776.971 579.48C776.553 577.522 773.202 574.389 771.107 571.649C769.013 568.908 766.5 563.426 765.244 561.469C763.987 559.511 765.244 552.463 765.244 547.373C765.244 542.283 763.149 540.325 761.893 538.368C760.636 536.41 757.285 534.844 755.191 534.061C753.097 533.278 746.395 532.886 743.882 531.712C741.369 530.537 737.599 526.23 736.343 523.881C735.086 521.532 735.924 519.574 736.343 517.616C736.762 515.658 740.95 514.484 743.882 514.484C746.814 514.484 748.908 514.875 752.259 517.616C755.61 520.357 759.798 521.532 764.406 519.574Z" fill="#D9D9D9"/>
<path d="M771.526 355.518C765.83 359.904 756.308 377.967 752.259 386.45H758.123C760.217 386.45 757.704 388.799 761.474 391.54C765.243 394.281 767.338 390.757 770.689 391.54C774.039 392.323 773.202 395.847 774.039 402.112C774.877 408.376 774.877 406.81 777.809 407.202C780.741 407.593 781.579 409.551 781.579 410.726C781.579 411.9 779.484 411.9 777.809 414.641C776.134 417.382 779.903 418.556 784.511 417.773C789.118 416.99 784.93 419.339 791.212 420.514C797.495 421.689 798.752 422.08 804.197 418.556C808.553 415.737 812.434 417.382 813.83 418.556C817.181 419.339 816.343 425.996 814.668 429.128C812.993 432.26 812.155 435.393 813.83 435.784C815.506 436.176 823.464 427.17 825.977 424.43C828.49 421.689 834.773 422.08 839.38 422.863C843.988 423.646 847.757 434.61 855.297 431.477C862.836 428.345 858.229 421.689 856.972 420.514C855.716 419.339 850.689 415.424 850.689 411.9C850.689 408.376 858.229 401.72 861.161 399.762C864.093 397.805 867.025 394.672 867.025 390.757C867.025 386.842 860.742 380.969 852.784 374.704C844.825 368.439 835.192 351.211 833.935 346.905C832.679 342.598 833.516 341.423 835.192 339.074L835.192 339.074C836.867 336.724 838.124 335.941 836.867 333.201C835.611 330.46 830.584 329.677 830.166 322.237C829.747 314.798 827.652 314.407 825.139 314.015C822.626 313.624 817.6 318.322 815.925 320.671C814.584 322.551 812.574 324.587 811.736 325.37C809.502 328.111 803.108 335.158 795.401 341.423C789.118 345.73 778.647 350.037 771.526 355.518Z" fill="#D9D9D9"/>
<path d="M688.593 477.288C690.939 476.035 690.688 469.718 690.269 466.716C691.107 467.108 693.703 467.891 697.389 467.891C701.997 467.891 707.023 469.457 709.955 471.023C712.887 472.589 715.4 471.023 718.332 471.806C721.264 472.589 720.426 474.547 720.426 482.769C720.426 490.992 724.615 490.992 726.709 490.992C728.803 490.992 729.641 489.817 734.248 486.685C738.856 483.553 743.882 485.902 745.976 487.468C748.071 489.034 749.327 490.992 751.002 494.516C752.678 498.04 765.662 507.045 766.5 510.569C767.338 514.093 763.149 518.008 759.798 518.791C756.448 519.574 753.934 516.05 750.165 514.093C746.395 512.135 742.625 512.135 739.275 512.918C735.924 513.701 733.411 518.008 735.086 525.056C736.762 532.104 745.976 536.019 752.259 536.019C758.542 536.019 758.123 538.368 761.893 541.892C765.662 545.416 762.312 555.988 763.149 560.686C763.987 565.384 773.202 577.522 774.458 578.305C775.715 579.088 775.715 581.829 774.458 587.311C773.202 592.792 773.621 594.358 768.175 595.925C762.73 597.491 761.474 594.358 758.961 592.401C756.448 590.443 749.746 591.226 745.557 592.401C741.369 593.575 742.625 594.358 740.531 595.925C738.437 597.491 740.531 595.142 738.856 594.358C737.18 593.575 734.248 595.533 732.154 595.925C730.06 596.316 734.248 593.967 735.924 592.401C737.599 590.835 737.18 589.268 734.248 587.311C731.316 585.353 731.316 588.485 730.479 591.226C729.641 593.967 726.709 594.358 725.034 593.184C723.358 592.009 720.845 583.787 720.845 581.829C720.845 579.871 719.589 577.522 717.494 573.998C715.4 570.475 717.913 572.824 720.845 570.083C723.777 567.342 721.683 568.125 725.871 568.125C730.06 568.125 730.479 568.125 729.641 566.559C728.803 564.993 725.034 564.601 725.034 563.427C725.034 562.252 727.966 559.12 728.803 555.988C729.641 552.855 727.128 554.421 726.709 552.855C726.374 551.602 728.524 550.245 729.641 549.723C729.641 548.548 729.473 545.729 728.803 543.85C727.966 541.501 724.615 543.458 723.358 539.934C722.102 536.41 721.264 537.194 719.589 536.019C717.913 534.844 717.075 534.844 715.4 533.278C713.725 531.712 709.955 531.32 706.185 530.537C702.416 529.754 703.253 527.014 701.159 526.23C699.065 525.447 696.552 529.754 693.62 531.32C690.688 532.887 691.107 530.537 690.269 528.188C689.431 525.839 687.756 524.273 686.499 521.924C685.243 519.574 683.148 519.574 681.054 518.008C678.96 516.442 681.892 513.31 683.148 510.569C684.405 507.828 685.243 507.045 681.054 501.563C676.866 496.082 676.866 496.082 675.609 490.992L675.609 490.992C674.353 485.902 676.028 484.727 679.798 480.029C683.567 475.33 685.662 478.854 688.593 477.288Z" fill="#D9D9D9"/>
<path d="M732.154 425.604C732.154 422.159 734.109 421.297 735.086 421.297C740.95 421.297 743.882 425.604 744.72 428.345C745.557 431.086 745.557 431.086 744.72 432.652C743.882 434.218 738.856 440.091 738.018 444.398C737.18 448.705 740.531 452.621 743.882 452.621C747.233 452.621 749.746 449.88 752.259 449.88C754.27 449.88 757.285 451.707 758.542 452.621C756.866 455.1 752.762 460.765 749.746 463.584C745.976 467.108 744.72 469.848 744.72 473.372C744.72 476.896 745.139 481.203 744.72 483.944C744.301 486.685 742.625 484.335 738.856 483.944C735.086 483.552 732.154 483.944 730.06 486.293C727.966 488.642 727.128 489.034 724.615 488.642C722.102 488.251 722.521 479.637 722.521 474.547C722.521 469.457 721.683 469.848 718.332 468.674C714.981 467.499 712.468 470.631 708.698 468.674C704.929 466.716 706.604 466.716 702.416 465.933C699.065 465.306 694.039 465.672 691.944 465.933C691.386 464.889 690.604 462.644 691.944 462.018C693.62 461.234 694.039 458.494 695.295 455.753C696.552 453.012 692.782 453.795 691.944 452.621C691.107 451.446 693.62 451.838 694.039 449.88C694.457 447.922 692.782 445.964 692.782 444.398C692.782 442.832 699.065 444.79 707.442 444.398C715.819 444.007 718.751 441.266 720.426 438.134C722.102 435.001 725.871 437.742 729.222 435.001C732.573 432.26 732.154 429.911 732.154 425.604Z" fill="#D9D9D9"/>
<path d="M719.589 390.757C718.918 387.625 723.219 384.754 725.453 383.71C727.268 383.057 730.898 382.378 730.898 384.884C730.898 388.017 734.667 391.932 736.761 393.89C738.856 395.847 743.044 393.89 745.976 391.932C748.908 389.974 751.84 388.408 755.191 388.408C758.542 388.408 757.285 392.715 759.379 394.673C761.474 396.63 766.919 393.498 769.851 394.673C772.783 395.847 770.689 397.805 771.526 404.07C772.364 410.334 774.458 408.768 777.809 409.551C781.16 410.334 777.39 411.509 775.715 414.641C774.039 417.774 779.484 418.948 784.929 421.297C790.009 423.489 798.367 422.614 799.128 422.487C799.146 422.477 799.16 422.472 799.17 422.472C799.199 422.472 799.183 422.477 799.128 422.487C798.475 422.85 793.285 429.942 792.469 431.086C791.631 432.261 792.469 435.393 780.322 440.091C768.175 444.79 761.893 450.663 759.379 450.663C756.866 450.663 756.866 448.705 753.097 447.531C749.327 446.356 749.746 449.488 745.139 450.663C740.531 451.838 740.95 444.398 742.207 441.658C743.463 438.917 746.814 435.393 748.489 432.652C750.165 429.911 748.07 429.128 746.814 425.996C745.557 422.864 740.95 419.731 737.599 418.948C734.248 418.165 733.411 418.948 730.898 422.472C728.384 425.996 730.479 431.086 729.222 432.652C727.966 434.218 723.777 435.393 719.589 435.393C715.4 435.393 709.955 429.128 708.698 427.562C707.442 425.996 708.28 423.647 707.861 421.297C707.442 418.948 709.955 416.991 709.955 414.641C709.955 412.292 709.536 412.292 712.887 413.075C716.238 413.858 722.102 409.943 723.777 407.594C725.452 405.244 724.615 399.763 722.102 396.63C719.589 393.498 720.426 394.673 719.589 390.757Z" fill="#D9D9D9"/>
<path d="M687.756 441.266C686.751 440.64 698.506 432.13 704.51 427.954H705.766C706.604 427.954 716.657 436.959 717.494 437.742C718.332 438.525 717.913 440.091 715.819 441.266C713.725 442.441 705.766 442.441 699.065 442.832C692.363 443.224 689.012 442.049 687.756 441.266Z" fill="#D9D9D9"/>
<path d="M739.693 392.324C736.343 393.89 734.109 389.322 733.411 386.842C733.411 385.406 732.74 382.222 730.06 380.969C726.709 379.403 722.52 384.884 719.17 387.234C715.819 389.583 719.588 397.022 721.683 398.98C723.777 400.938 723.358 404.461 722.939 406.028C722.52 407.594 719.588 411.509 712.049 410.726C704.51 409.943 706.604 406.028 703.253 404.853C699.902 403.678 695.714 404.461 693.62 403.678C691.525 402.895 694.038 400.546 693.62 398.588C693.201 396.631 692.363 395.064 689.431 393.498C686.499 391.932 685.661 392.324 686.499 389.974C687.337 387.625 691.106 388.8 692.363 387.234C693.62 385.667 696.552 382.535 698.227 380.969C699.902 379.403 700.321 377.837 699.484 374.704C698.646 371.572 697.389 373.138 696.552 371.572C695.714 370.006 700.321 371.572 700.321 369.223C700.321 366.873 700.321 365.699 704.51 368.44C708.698 371.18 706.604 377.053 708.279 380.969C709.955 384.884 717.494 383.318 720.845 383.318C724.196 383.318 727.965 379.794 730.479 377.053C732.992 374.313 734.248 371.572 737.18 370.789C740.112 370.006 741.788 371.963 744.301 374.704C746.814 377.445 745.138 385.667 744.72 387.234C744.301 388.8 743.882 390.366 739.693 392.324Z" fill="#D9D9D9"/>
<path d="M699.065 406.419C695.379 405.166 688.035 405.897 684.824 406.419L682.73 407.202C683.847 407.202 686.751 407.358 689.431 407.985C692.782 408.768 696.552 411.509 698.227 415.424C699.903 419.34 681.892 430.694 682.73 432.26C683.567 433.827 684.824 438.134 687.756 438.917C690.688 439.7 704.929 426.387 705.767 425.213C706.604 424.038 706.185 423.255 705.767 421.297C705.348 419.34 708.28 416.207 708.28 414.641C708.28 413.075 703.672 407.985 699.065 406.419Z" fill="#D9D9D9"/>
<path d="M668.347 411.335C667.631 411.931 667.045 412.292 666.813 412.292C667.201 412.038 667.735 411.702 668.347 411.335C670.217 409.779 672.98 406.617 672.677 404.069C672.258 400.546 669.326 399.763 671.002 397.805C672.677 395.847 673.096 394.672 673.515 392.715C673.934 390.757 672.677 389.191 675.19 389.191C677.703 389.191 676.866 391.149 680.635 392.715C684.405 394.281 686.499 394.281 689.012 396.63C691.526 398.979 691.944 402.503 691.107 403.286C690.269 404.069 684.824 404.461 682.73 406.027C680.635 407.593 676.028 407.985 673.515 408.768C672.063 409.22 669.94 410.381 668.347 411.335Z" fill="#D9D9D9"/>
<path d="M679.798 430.303C677.787 430.616 678.122 428.606 678.541 427.562C678.806 425.604 685.243 422.081 684.824 420.906C684.405 419.731 683.567 418.948 681.473 417.774C679.379 416.599 670.583 413.075 670.164 411.9C669.745 410.726 682.311 408.377 685.661 408.768C689.012 409.16 694.457 414.25 695.295 416.207C696.133 418.165 682.311 429.911 679.798 430.303Z" fill="#D9D9D9"/>
<path d="M655.085 439.309C653.41 440.248 655.783 442.049 657.179 442.832C658.017 444.268 660.111 446.904 661.787 445.965C663.881 444.79 667.651 444.398 672.258 444.398C676.866 444.398 675.19 444.007 677.703 442.832C680.216 441.658 684.405 442.049 685.243 441.658C686.08 441.266 686.08 440.875 685.243 439.309C684.405 437.743 683.148 436.568 681.892 435.393C680.635 434.219 681.892 432.261 678.541 433.827C675.19 435.393 673.515 435.785 668.07 436.568C662.625 437.351 657.179 438.134 655.085 439.309Z" fill="#D9D9D9"/>
<path d="M660.53 422.863C659.86 420.984 665.277 415.816 668.07 413.466C670.164 412.683 679.379 418.556 681.892 420.514C684.405 422.472 681.054 422.08 677.284 425.604C673.515 429.128 678.122 428.737 676.866 431.869C675.609 435.001 660.53 436.959 663.043 435.784C665.557 434.61 663.881 428.345 663.043 426.779C662.206 425.213 661.368 425.213 660.53 422.863Z" fill="#D9D9D9"/>
<path d="M641.682 429.911C640.342 431.477 640.565 435.262 640.844 436.959C643.916 438.003 650.478 440.091 652.153 440.091C654.247 440.091 652.572 436.959 656.761 436.568C660.949 436.176 662.624 433.827 662.624 432.652C662.624 431.478 662.206 428.345 660.53 427.171C658.855 425.996 659.274 423.255 658.436 422.472C657.598 421.689 656.342 425.213 654.666 425.604C652.991 425.996 653.41 425.996 652.572 425.213C651.635 424.337 652.572 423.255 650.059 423.255C647.546 423.255 643.357 427.954 641.682 429.911Z" fill="#D9D9D9"/>
<path d="M629.954 457.711C628.614 456.144 629.396 441.396 629.954 434.218C630.071 432.652 631.211 435.001 633.724 435.784C636.237 436.567 653.41 442.049 655.085 442.832C656.761 443.615 658.017 446.356 657.18 447.531C656.342 448.705 640.007 458.885 635.818 460.06C631.63 461.235 631.63 459.668 629.954 457.711Z" fill="#D9D9D9"/>
<path d="M611.525 486.293C612.865 485.667 612.083 481.334 611.525 479.245C611.525 476.896 616.97 479.245 622.834 476.896C628.698 474.547 627.441 469.457 627.86 467.499C628.279 465.542 628.279 456.928 628.698 458.494C629.117 460.06 631.211 461.626 634.562 462.409C637.912 463.192 652.153 453.012 660.112 448.314C668.07 443.615 671.421 446.356 674.771 446.356C678.122 446.356 676.866 446.356 678.96 444.398C681.054 442.441 688.594 442.832 691.107 445.573C693.62 448.314 690.269 451.446 688.594 451.838C686.918 452.229 686.918 451.838 683.986 452.229C681.054 452.621 682.73 455.361 681.054 455.753C679.379 456.145 677.285 454.97 675.19 454.187C673.096 453.404 674.771 456.536 669.745 457.319C664.719 458.102 654.248 460.843 647.127 463.192C640.007 465.542 638.331 476.896 637.912 478.462C637.494 480.029 633.724 487.076 632.886 489.034C632.048 490.992 629.535 492.166 628.698 490.992C627.86 489.817 627.86 487.859 626.185 487.076C624.509 486.293 624.09 487.468 621.158 489.034C618.226 490.6 616.551 491.383 611.944 492.166C607.336 492.949 606.08 489.817 604.823 487.859C603.567 485.902 609.849 487.076 611.525 486.293Z" fill="#D9D9D9"/>
<path d="M636.656 376.27C636.991 373.451 637.912 372.746 638.331 372.746C639.169 372.746 641.682 375.095 644.195 376.27C646.708 377.445 647.965 375.487 649.64 372.746C651.316 370.005 651.316 369.222 655.085 368.831C658.855 368.439 667.232 375.879 668.489 377.053C669.745 378.228 671.421 378.228 675.19 377.445C678.206 376.818 677.843 377.967 677.285 378.619C672.677 379.402 673.934 382.535 673.934 384.884C673.934 387.233 672.677 388.799 671.002 391.54C669.326 394.281 668.908 397.413 668.908 400.937C668.908 404.461 669.745 404.461 667.651 406.81C665.557 409.159 658.855 422.863 654.248 422.863C649.64 422.863 641.682 395.064 640.844 392.715C640.007 390.366 636.237 379.794 636.656 376.27Z" fill="#D9D9D9"/>
<path d="M614.038 391.54C612.697 389.348 617.668 387.234 620.321 386.45C622.554 385.928 628.027 384.258 632.048 381.752C637.075 378.62 637.075 385.276 639.169 392.715C641.263 400.154 647.127 415.033 647.965 416.991C648.802 418.948 649.221 420.906 647.965 422.864C646.708 424.821 642.939 424.821 640.425 427.171C637.912 429.52 640.844 432.652 639.169 434.218C637.493 435.785 637.075 435.785 632.886 433.435C628.698 431.086 629.116 428.737 627.86 422.864C626.603 416.991 622.834 406.419 619.902 401.72C616.97 397.022 615.713 394.281 614.038 391.54Z" fill="#D9D9D9"/>
<path d="M602.31 377.836C599.964 378.149 595.748 383.709 593.933 386.45C593.67 386.842 593.933 387.233 594.77 388.016C595.608 388.799 595.608 390.757 595.608 391.932C595.608 393.106 594.77 393.889 593.933 396.63C593.095 399.371 593.095 400.546 593.933 402.112C594.771 403.678 593.933 405.244 598.121 410.334C602.31 415.424 599.797 418.556 596.446 422.08C593.095 425.604 585.556 425.996 580.948 429.128C576.341 432.26 583.88 434.218 583.461 436.567C583.043 438.917 575.503 443.223 573.409 444.79C571.315 446.356 571.734 445.964 571.734 451.837C571.734 457.71 579.692 456.144 582.624 457.319C585.556 458.494 583.461 460.451 585.137 460.843C586.812 461.234 586.393 458.494 589.325 457.319C592.257 456.144 593.095 459.277 594.352 460.843C595.608 462.409 601.053 463.975 604.404 465.541C607.755 467.107 610.687 470.24 611.106 472.197C611.525 474.155 610.687 474.547 612.781 476.504C614.875 478.462 623.671 473.372 624.509 472.589C625.347 471.806 625.766 465.933 626.184 461.626C626.603 457.319 626.184 456.144 627.441 446.747C628.698 437.35 626.603 425.604 623.671 415.033C620.739 404.461 611.525 393.498 612.781 389.974C614.038 386.45 617.389 386.059 617.389 385.667C617.389 385.275 619.064 384.492 617.807 382.926C616.551 381.36 614.038 380.577 610.687 379.011C607.336 377.445 605.242 377.445 602.31 377.836Z" fill="#D9D9D9"/>
<path d="M535.712 355.127C537.723 346.357 540.18 339.204 541.157 336.725C542.554 336.725 545.513 336.803 546.184 337.116C546.854 337.429 546.742 338.03 546.602 338.291C545.067 343.511 541.828 354.735 541.157 357.868C540.487 361 544.229 361.783 546.184 361.783C554.421 362.566 572.32 363.976 578.016 363.349C585.137 362.566 586.393 370.006 589.744 372.355C593.095 374.704 593.514 372.746 596.446 372.746C599.378 372.746 599.797 374.704 600.216 375.487C600.634 376.27 600.216 377.445 597.284 379.794C594.352 382.143 591.001 385.276 590.582 387.233C590.163 389.191 592.676 389.974 592.676 392.715C592.676 395.456 590.163 398.98 590.163 400.546C590.163 402.112 592.676 406.419 593.514 408.376C594.352 410.334 594.771 412.292 596.446 413.467C598.121 414.641 596.446 418.165 594.771 419.731C593.095 421.297 590.163 422.863 583.88 424.821C577.598 426.779 578.016 427.562 576.76 429.911C575.503 432.26 578.854 433.435 580.53 435.393C582.205 437.35 576.76 438.917 572.571 440.874C568.383 442.832 567.964 444.007 568.802 452.621C569.639 461.234 580.948 458.102 582.205 459.668C583.462 461.234 582.624 465.541 585.556 465.15C588.488 464.758 588.069 458.885 590.163 459.668C592.257 460.451 591.839 462.409 596.446 464.758C601.053 467.108 603.148 466.324 606.08 468.674C609.012 471.023 608.593 476.113 609.43 479.637C610.268 483.161 609.849 482.769 608.174 483.944C606.498 485.118 604.823 484.335 603.148 487.076C601.472 489.817 605.661 492.558 610.268 494.515C614.875 496.473 624.509 489.425 626.184 489.034C627.86 488.642 627.441 492.949 627.86 494.515C628.279 496.082 629.954 496.865 634.143 489.034C638.331 481.203 644.195 467.891 645.871 466.324C647.546 464.758 658.436 461.234 662.625 461.234C666.813 461.234 671.839 462.018 672.258 460.06C672.677 458.102 674.352 456.536 675.609 456.928C676.866 457.319 681.473 459.277 683.567 458.885C685.662 458.494 684.405 454.187 687.756 454.187C691.107 454.187 691.525 453.795 692.363 456.536C693.201 459.277 690.269 458.885 688.593 461.234C686.918 463.584 689.431 472.589 687.756 474.938C686.08 477.288 683.986 475.33 681.473 475.33C678.96 475.33 678.122 478.462 675.19 482.378C672.258 486.293 674.352 494.907 675.19 496.865C676.028 498.822 680.635 505.087 681.473 506.653C682.311 508.219 680.635 510.177 679.379 512.526C678.122 514.875 677.703 518.399 680.635 520.357C683.567 522.315 684.405 522.315 685.243 524.664C686.08 527.013 685.662 528.579 684.405 531.712C683.148 534.844 680.635 534.061 676.447 536.019C672.258 537.976 676.447 537.193 670.583 539.543C664.719 541.892 665.138 540.326 664.3 539.543C663.462 538.759 663.043 537.585 659.693 537.976C656.342 538.368 655.923 545.807 654.666 546.59C653.41 547.373 653.41 546.59 652.572 546.199C651.902 545.885 651.176 546.329 650.897 546.59C647.546 549.331 642.101 553.246 637.912 550.897C633.724 548.548 636.656 541.109 634.98 539.543C633.305 537.976 630.373 539.934 628.279 540.326C626.184 540.717 628.279 539.543 629.954 537.976C631.63 536.41 631.211 536.019 628.279 533.669C625.347 531.32 616.132 524.664 613.2 523.881C610.268 523.098 608.174 529.362 606.917 529.754C605.661 530.146 606.08 528.971 603.985 528.579C601.891 528.188 603.566 530.146 601.053 531.32C598.54 532.495 595.608 527.796 591.839 526.23C588.069 524.664 588.907 528.188 585.975 531.32C583.043 534.452 582.205 527.013 578.854 526.23C575.503 525.447 570.477 531.712 568.383 532.103C566.289 532.495 567.545 529.362 567.126 527.013C566.707 524.664 564.613 526.622 562.519 526.23C560.425 525.839 566.289 514.092 566.289 510.177C566.289 506.262 562.1 500.78 560.425 499.605C558.749 498.431 551.629 499.214 549.534 499.605C547.44 499.997 541.995 480.028 541.995 477.288C541.995 474.547 544.508 473.764 544.508 472.198C544.508 470.631 536.131 465.933 533.618 466.324C531.105 466.716 527.335 471.415 525.241 472.198C523.147 472.981 518.121 464.367 514.351 463.192C510.581 462.018 510.581 464.367 508.487 465.15C506.393 465.933 486.288 442.049 485.031 439.7C484.026 437.82 492.989 431.608 497.597 428.737C503.042 424.56 514.77 415.659 518.121 413.467C521.471 411.274 522.868 406.288 523.147 404.07L528.592 381.752C530.128 376.531 533.702 363.898 535.712 355.127Z" fill="#D9D9D9"/>
<path d="M699.484 356.693C696.468 357.32 697.389 360.609 698.227 362.175C700.74 365.307 702.834 365.307 706.185 367.265C709.536 369.223 708.279 369.614 709.117 375.879C709.955 382.144 716.238 381.752 720.845 380.577C725.452 379.403 730.898 372.355 731.735 369.223C732.573 366.09 740.95 366.09 744.72 368.831C748.489 371.572 747.233 375.487 746.814 380.577C746.395 385.667 746.395 386.059 748.07 387.234C749.746 388.408 750.165 386.45 751.002 383.71C751.84 380.969 761.055 363.741 766.5 357.476C771.945 351.212 789.537 343.773 791.212 342.598C792.888 341.423 797.495 338.291 796.657 337.508C795.82 336.725 795.401 336.725 789.539 336.725H789.537C783.673 336.725 784.092 338.683 781.16 340.249C778.228 341.815 776.552 342.598 774.039 342.989C771.526 343.381 771.107 340.249 771.945 338.683C772.783 337.116 773.62 336.725 773.202 332.418C772.783 328.111 770.27 328.111 769.013 326.936C767.757 325.762 766.081 321.455 763.568 320.672C761.055 319.888 761.055 321.455 760.217 324.196C759.379 326.936 758.542 325.762 756.448 328.894C754.353 332.026 758.542 337.508 758.542 340.249C758.542 342.989 755.191 342.989 748.908 344.947C742.625 346.905 740.95 340.64 740.95 337.508C740.95 334.376 742.207 334.376 742.625 333.201C743.044 332.026 741.788 330.852 738.437 330.852C735.086 330.852 732.573 332.418 730.898 330.852C729.222 329.285 730.479 327.719 726.709 323.413C722.939 319.106 721.683 320.28 717.494 317.539C713.306 314.799 712.049 320.672 712.049 321.455C712.049 322.238 714.143 321.455 714.981 323.413C715.819 325.37 716.238 327.72 714.981 329.677C713.725 331.635 712.049 330.852 712.049 331.635C712.049 332.418 713.306 330.852 717.913 332.418C722.52 333.984 722.102 334.767 721.683 336.725C721.264 338.683 717.494 336.725 714.981 339.466C712.468 342.206 714.143 342.598 716.238 345.73C718.332 348.863 717.494 348.08 717.494 350.429C717.494 352.778 716.657 352.387 714.143 354.736C711.63 357.085 703.253 355.91 699.484 356.693Z" fill="#D9D9D9"/>
<path d="M640.007 361.392C639.001 363.271 638.471 368.7 638.331 371.18C639.588 372.746 642.101 373.529 644.614 373.921C647.127 374.312 648.802 369.222 650.897 366.873C652.991 364.524 655.923 365.307 663.462 370.397C671.002 375.487 673.096 374.704 674.352 374.704C675.609 374.704 678.96 374.704 680.635 377.053C682.311 379.402 678.541 379.794 676.866 382.143C675.19 384.492 680.635 389.582 683.148 389.974C685.662 390.366 692.782 381.752 694.457 380.577C696.133 379.402 699.065 375.879 697.808 374.704C696.552 373.529 690.269 370.789 689.012 367.656C687.756 364.524 688.593 362.566 688.593 361.783C688.593 361 686.08 357.085 679.798 355.91C673.515 354.735 676.028 350.037 674.352 349.645C672.677 349.254 673.515 349.645 668.907 351.603C664.3 353.561 659.693 351.212 657.18 348.862C654.666 346.513 655.504 347.688 654.248 348.079C652.991 348.471 653.41 351.212 649.64 353.952C645.871 356.693 641.263 359.042 640.007 361.392Z" fill="#D9D9D9"/>
<path d="M545.765 310.1C545.43 308.534 521.89 296.657 510.162 290.914C513.792 292.219 521.89 295.143 525.241 296.396C529.43 297.962 541.995 298.353 552.885 298.353C563.775 298.353 569.22 298.353 574.666 296.396C580.111 294.438 584.718 296.396 588.907 296.396C593.095 296.396 593.514 295.221 593.933 293.655C594.352 292.089 592.676 288.957 593.514 287.782C594.352 286.607 598.121 288.957 600.216 289.74C602.31 290.523 607.336 290.131 607.336 294.047C607.336 297.179 608.732 298.223 609.43 298.353C615.294 303.052 645.87 299.528 652.991 296.787C660.111 294.047 659.693 291.697 660.949 291.306C662.206 290.914 667.232 294.047 670.164 294.438C673.096 294.83 673.096 293.263 677.703 293.263C682.311 293.263 681.892 293.655 683.986 295.613C686.08 297.57 689.012 302.66 689.431 303.444C689.85 304.227 690.688 306.184 689.85 308.534C689.012 310.883 683.567 312.449 682.73 312.84C681.892 313.232 682.73 311.274 682.73 310.1C682.73 308.925 682.311 308.925 681.473 308.534C680.635 308.142 679.798 307.75 675.19 308.534C670.583 309.317 671.002 314.407 670.164 316.364C669.326 318.322 665.975 317.931 662.206 317.931C658.436 317.931 657.18 316.756 656.761 316.364C656.342 315.973 654.666 315.581 652.991 315.19C651.316 314.798 642.52 318.322 635.399 321.063C628.279 323.804 631.63 328.111 631.211 330.068C630.792 332.026 625.766 335.158 623.252 336.724C620.739 338.291 613.2 351.603 613.2 352.778C613.2 353.952 620.32 361.783 620.32 362.958C620.32 364.132 615.294 367.656 613.2 369.222C611.106 370.788 611.943 374.704 610.268 376.27C608.593 377.836 601.472 372.746 599.797 371.572C598.121 370.397 595.189 371.572 593.514 371.572C591.839 371.572 587.65 366.482 585.137 363.349C582.624 360.217 544.927 361.392 543.252 360.217C541.576 359.042 548.278 338.291 548.278 336.724C548.278 335.158 542.414 335.941 541.576 335.941C540.739 335.941 544.508 321.063 545.765 316.756C547.021 312.449 546.184 312.057 545.765 310.1Z" fill="#D9D9D9"/>
<path d="M473.57 85.7856C472.226 87.6702 475.251 88.4031 476.931 88.534C477.351 88.7958 478.528 89.7119 479.872 91.2824C481.553 93.2456 481.553 92.4603 480.712 94.0309C479.872 95.6014 478.612 97.5646 476.931 100.706C475.587 103.218 471.609 105.155 469.789 105.81C468.248 111.307 465.083 122.536 464.747 123.478C464.327 124.656 461.806 124.264 461.386 125.049C460.966 125.834 458.445 131.724 458.025 134.472C457.605 137.221 457.185 136.043 455.504 138.006C453.823 139.969 455.084 139.969 454.244 142.717C453.403 145.466 452.143 143.503 450.882 145.073C449.622 146.644 450.462 155.282 450.462 159.993C450.462 164.705 450.042 164.705 447.941 166.275C445.841 167.846 444.58 167.061 444.58 172.557C444.58 178.054 447.521 181.588 447.941 183.159C448.362 184.729 447.101 189.441 440.379 195.33C433.657 201.22 434.497 207.502 434.497 211.036C434.497 214.569 435.757 211.821 437.018 216.925C438.278 222.029 414.75 225.956 408.868 226.741C402.986 227.526 396.264 225.956 393.323 226.741C390.382 227.526 386.601 231.452 386.601 232.238C386.601 233.023 398.785 249.121 400.045 250.691C401.306 252.262 426.514 246.765 432.816 246.765C439.118 246.765 437.858 245.195 455.924 261.293C473.99 277.391 483.653 279.746 507.602 289.955C531.55 300.163 564.321 296.237 567.682 296.237C571.043 296.237 572.723 296.237 573.564 294.666C574.404 293.096 589.529 295.059 590.789 293.881C592.05 292.703 590.369 291.525 589.529 287.599C588.689 283.673 594.991 285.636 600.453 287.599C605.915 289.562 606.755 289.562 610.116 289.955C613.477 290.347 610.116 293.488 612.637 296.237C615.158 298.985 618.519 296.63 632.383 297.807C646.248 298.985 656.752 293.096 658.432 291.525C660.113 289.955 660.113 289.955 658.432 288.384L658.432 288.384C656.752 286.814 654.651 284.85 652.97 282.102C651.29 279.354 655.491 267.967 655.911 264.826C656.331 261.685 653.811 261.293 652.13 257.366C650.45 253.44 652.55 249.121 652.97 246.765C653.391 244.409 652.55 243.231 651.29 242.446C650.029 241.661 647.088 244.409 644.147 245.195C641.206 245.98 640.366 245.98 637.005 244.409C633.644 242.839 628.182 240.09 626.501 237.735C624.821 235.379 622.72 232.63 622.72 230.275C622.72 227.919 625.661 223.6 626.501 222.422C627.342 221.244 626.501 218.888 624.821 216.925C623.14 214.962 622.72 215.354 617.678 215.354C612.637 215.354 607.595 212.606 605.915 210.25C604.234 207.894 603.394 202.79 602.974 201.22C602.553 199.649 603.814 196.901 604.654 194.938C605.494 192.974 605.915 193.76 608.435 191.797C610.956 189.833 609.696 185.514 605.915 185.514C602.133 185.514 603.394 189.048 601.713 190.226C600.033 191.404 599.612 192.582 596.671 192.974C593.73 193.367 592.47 192.974 590.369 189.048C588.269 185.122 589.109 186.692 587.848 183.159C586.588 179.625 585.328 178.84 584.067 177.662C582.807 176.484 581.546 178.84 580.706 181.981C580.034 184.494 578.465 185.384 577.765 185.514C575.384 185.645 569.866 185.828 566.841 185.514C563.06 185.122 562.22 184.336 559.699 183.159C557.178 181.981 558.439 180.41 555.918 177.662C553.397 174.913 551.296 175.699 547.935 174.521C544.574 173.343 544.574 172.557 543.734 169.416C542.893 166.275 542.893 167.061 540.793 164.312C538.692 161.564 538.272 161.171 538.272 157.637C538.272 154.104 543.734 150.177 546.254 147.036C548.775 143.895 546.254 144.288 542.893 144.288C539.532 144.288 538.272 145.466 536.171 144.288C534.07 143.11 532.39 140.754 531.55 136.828C530.709 132.902 534.07 134.079 537.011 132.116C539.952 130.153 539.532 128.975 540.793 126.619C542.053 124.264 541.213 119.552 540.793 117.981C540.373 116.411 537.011 117.196 534.07 116.804C531.129 116.411 531.55 114.448 528.609 111.699C525.668 108.951 525.668 106.202 525.247 103.847C524.827 101.491 522.727 100.706 520.626 100.706C518.525 100.706 516.424 101.098 514.744 100.706C513.063 100.313 511.383 97.9572 508.442 97.5646C505.501 97.1719 502.56 99.1351 498.779 99.1351C494.997 99.1351 490.796 97.9572 487.855 95.994C484.914 94.0309 485.754 92.4603 486.174 91.2824C486.594 90.1045 488.275 89.7119 488.695 89.3193C489.031 89.0052 488.835 88.6649 488.695 88.534C487.435 87.6179 484.242 85.4715 481.553 84.215C478.192 82.6445 475.251 83.4298 473.57 85.7856Z" fill="#D9D9D9"/>
<path d="M614.875 371.18C613.2 374.313 613.06 376.401 613.2 377.054C613.2 377.184 613.284 377.68 613.619 378.62C614.038 379.794 616.551 379.794 618.645 380.186C620.739 380.577 620.321 382.144 622.834 382.927C625.347 383.71 629.954 381.36 633.305 377.837C636.656 374.313 636.656 367.265 636.656 366.482C636.656 365.699 637.075 362.175 637.493 361C637.912 359.826 648.802 352.386 650.897 349.254C652.991 346.122 656.342 343.773 658.436 346.513C660.53 349.254 663.881 349.646 666.813 349.646C669.745 349.646 671.839 346.513 674.771 346.513C677.703 346.513 676.028 351.212 678.541 353.17C681.054 355.127 682.311 352.386 684.824 354.736C687.337 357.085 687.756 356.693 690.269 359.826C692.782 362.958 688.593 362.175 691.944 367.657C695.295 373.138 699.065 369.223 699.484 367.265C699.902 365.307 697.808 364.133 696.552 362.958C695.295 361.783 694.876 358.651 697.389 355.519C699.902 352.386 710.374 353.561 712.049 353.17C713.725 352.778 714.143 350.037 714.143 348.471C714.143 346.905 713.725 346.513 711.212 344.164C708.698 341.815 703.253 343.381 697.808 341.423C692.363 339.466 689.431 329.677 689.012 328.111C688.593 326.545 689.012 322.629 690.269 319.889C691.525 317.148 692.782 315.582 692.782 313.232C692.782 311.353 689.99 311.927 688.593 312.449C687.197 313.102 684.07 314.485 682.73 314.799C681.054 315.19 680.635 314.407 680.635 312.058C680.635 309.708 678.96 310.492 676.866 310.492C674.771 310.492 674.352 311.275 673.515 312.449C672.677 313.624 672.677 318.322 671.839 320.672C671.002 323.021 665.975 320.672 663.043 320.28C660.112 319.888 658.017 320.672 656.342 320.672C654.666 320.672 655.085 318.714 652.572 317.539C650.059 316.365 648.802 319.497 640.844 321.455C632.886 323.413 634.562 324.979 633.724 326.153C632.886 327.328 634.98 330.46 632.048 332.809C629.116 335.159 619.483 344.164 617.389 348.08C615.294 351.995 617.389 354.736 619.483 356.693C621.577 358.651 622.415 360.609 622.834 362.175C623.252 363.741 616.97 367.265 614.875 371.18Z" fill="#D9D9D9"/>
</svg>
