<svg width="188" height="56" viewBox="0 0 188 56" fill="none" xmlns="http://www.w3.org/2000/svg">
<g filter="url(#filter0_d_227_3035)">
<rect x="4" width="180" height="48" rx="8" fill="#FA897B" shape-rendering="crispEdges"/>
<path d="M74.1094 26.125C74.1094 25.8594 74.0677 25.625 73.9844 25.4219C73.9062 25.2135 73.7656 25.026 73.5625 24.8594C73.3646 24.6927 73.0885 24.5339 72.7344 24.3828C72.3854 24.2318 71.9427 24.0781 71.4062 23.9219C70.8438 23.7552 70.3359 23.5703 69.8828 23.3672C69.4297 23.1589 69.0417 22.9219 68.7188 22.6562C68.3958 22.3906 68.1484 22.0859 67.9766 21.7422C67.8047 21.3984 67.7188 21.0052 67.7188 20.5625C67.7188 20.1198 67.8099 19.7109 67.9922 19.3359C68.1745 18.9609 68.4349 18.6354 68.7734 18.3594C69.1172 18.0781 69.526 17.8594 70 17.7031C70.474 17.5469 71.0026 17.4688 71.5859 17.4688C72.4401 17.4688 73.1641 17.6328 73.7578 17.9609C74.3568 18.2839 74.8125 18.7083 75.125 19.2344C75.4375 19.7552 75.5938 20.3125 75.5938 20.9062H74.0938C74.0938 20.4792 74.0026 20.1016 73.8203 19.7734C73.638 19.4401 73.362 19.1797 72.9922 18.9922C72.6224 18.7995 72.1536 18.7031 71.5859 18.7031C71.0495 18.7031 70.6068 18.7839 70.2578 18.9453C69.9089 19.1068 69.6484 19.3255 69.4766 19.6016C69.3099 19.8776 69.2266 20.1927 69.2266 20.5469C69.2266 20.7865 69.276 21.0052 69.375 21.2031C69.4792 21.3958 69.638 21.5755 69.8516 21.7422C70.0703 21.9089 70.3464 22.0625 70.6797 22.2031C71.0182 22.3438 71.4219 22.4792 71.8906 22.6094C72.5365 22.7917 73.0938 22.9948 73.5625 23.2188C74.0312 23.4427 74.4167 23.6953 74.7188 23.9766C75.026 24.2526 75.2526 24.5677 75.3984 24.9219C75.5495 25.2708 75.625 25.6667 75.625 26.1094C75.625 26.5729 75.5312 26.9922 75.3438 27.3672C75.1562 27.7422 74.888 28.0625 74.5391 28.3281C74.1901 28.5938 73.7708 28.7995 73.2812 28.9453C72.7969 29.0859 72.2552 29.1562 71.6562 29.1562C71.1302 29.1562 70.612 29.0833 70.1016 28.9375C69.5964 28.7917 69.1354 28.5729 68.7188 28.2812C68.3073 27.9896 67.9766 27.6302 67.7266 27.2031C67.4818 26.7708 67.3594 26.2708 67.3594 25.7031H68.8594C68.8594 26.0938 68.9349 26.4297 69.0859 26.7109C69.237 26.987 69.4427 27.2161 69.7031 27.3984C69.9688 27.5807 70.2682 27.7161 70.6016 27.8047C70.9401 27.888 71.2917 27.9297 71.6562 27.9297C72.1823 27.9297 72.6276 27.8568 72.9922 27.7109C73.3568 27.5651 73.6328 27.3568 73.8203 27.0859C74.013 26.8151 74.1094 26.4948 74.1094 26.125ZM78.8984 20.5469V29H77.4453V20.5469H78.8984ZM77.3359 18.3047C77.3359 18.0703 77.4062 17.8724 77.5469 17.7109C77.6927 17.5495 77.9062 17.4688 78.1875 17.4688C78.4635 17.4688 78.6745 17.5495 78.8203 17.7109C78.9714 17.8724 79.0469 18.0703 79.0469 18.3047C79.0469 18.5286 78.9714 18.7214 78.8203 18.8828C78.6745 19.0391 78.4635 19.1172 78.1875 19.1172C77.9062 19.1172 77.6927 19.0391 77.5469 18.8828C77.4062 18.7214 77.3359 18.5286 77.3359 18.3047ZM86.6953 20.5469H88.0078V28.8203C88.0078 29.5651 87.8568 30.2005 87.5547 30.7266C87.2526 31.2526 86.8307 31.651 86.2891 31.9219C85.7526 32.1979 85.1328 32.3359 84.4297 32.3359C84.138 32.3359 83.7943 32.2891 83.3984 32.1953C83.0078 32.1068 82.6224 31.9531 82.2422 31.7344C81.8672 31.5208 81.5521 31.2318 81.2969 30.8672L82.0547 30.0078C82.4089 30.4349 82.7786 30.7318 83.1641 30.8984C83.5547 31.0651 83.9401 31.1484 84.3203 31.1484C84.7786 31.1484 85.1745 31.0625 85.5078 30.8906C85.8411 30.7188 86.099 30.4635 86.2812 30.125C86.4688 29.7917 86.5625 29.3802 86.5625 28.8906V22.4062L86.6953 20.5469ZM80.875 24.8672V24.7031C80.875 24.0573 80.9505 23.4714 81.1016 22.9453C81.2578 22.4141 81.4792 21.9583 81.7656 21.5781C82.0573 21.1979 82.4089 20.9062 82.8203 20.7031C83.2318 20.4948 83.6953 20.3906 84.2109 20.3906C84.7422 20.3906 85.2057 20.4844 85.6016 20.6719C86.0026 20.8542 86.3411 21.1224 86.6172 21.4766C86.8984 21.8255 87.1198 22.2474 87.2812 22.7422C87.4427 23.237 87.5547 23.7969 87.6172 24.4219V25.1406C87.5599 25.7604 87.4479 26.3177 87.2812 26.8125C87.1198 27.3073 86.8984 27.7292 86.6172 28.0781C86.3411 28.4271 86.0026 28.6953 85.6016 28.8828C85.2005 29.0651 84.7318 29.1562 84.1953 29.1562C83.6901 29.1562 83.2318 29.0495 82.8203 28.8359C82.4141 28.6224 82.0651 28.3229 81.7734 27.9375C81.4818 27.5521 81.2578 27.099 81.1016 26.5781C80.9505 26.0521 80.875 25.4818 80.875 24.8672ZM82.3203 24.7031V24.8672C82.3203 25.2891 82.362 25.6849 82.4453 26.0547C82.5339 26.4245 82.6667 26.75 82.8438 27.0312C83.026 27.3125 83.2578 27.5339 83.5391 27.6953C83.8203 27.8516 84.1562 27.9297 84.5469 27.9297C85.026 27.9297 85.4219 27.8281 85.7344 27.625C86.0469 27.4219 86.2943 27.1536 86.4766 26.8203C86.6641 26.487 86.8099 26.125 86.9141 25.7344V23.8516C86.8568 23.5651 86.7682 23.2891 86.6484 23.0234C86.5339 22.7526 86.3828 22.513 86.1953 22.3047C86.013 22.0911 85.7865 21.9219 85.5156 21.7969C85.2448 21.6719 84.9271 21.6094 84.5625 21.6094C84.1667 21.6094 83.8255 21.6927 83.5391 21.8594C83.2578 22.0208 83.026 22.2448 82.8438 22.5312C82.6667 22.8125 82.5339 23.1406 82.4453 23.5156C82.362 23.8854 82.3203 24.2812 82.3203 24.7031ZM91.6484 22.3516V29H90.2031V20.5469H91.5703L91.6484 22.3516ZM91.3047 24.4531L90.7031 24.4297C90.7083 23.8516 90.7943 23.3177 90.9609 22.8281C91.1276 22.3333 91.362 21.9036 91.6641 21.5391C91.9661 21.1745 92.3255 20.8932 92.7422 20.6953C93.1641 20.4922 93.6302 20.3906 94.1406 20.3906C94.5573 20.3906 94.9323 20.4479 95.2656 20.5625C95.599 20.6719 95.8828 20.849 96.1172 21.0938C96.3568 21.3385 96.5391 21.6562 96.6641 22.0469C96.7891 22.4323 96.8516 22.9036 96.8516 23.4609V29H95.3984V23.4453C95.3984 23.0026 95.3333 22.6484 95.2031 22.3828C95.0729 22.112 94.8828 21.9167 94.6328 21.7969C94.3828 21.6719 94.0755 21.6094 93.7109 21.6094C93.3516 21.6094 93.0234 21.6849 92.7266 21.8359C92.4349 21.987 92.1823 22.1953 91.9688 22.4609C91.7604 22.7266 91.5964 23.0312 91.4766 23.375C91.362 23.7135 91.3047 24.0729 91.3047 24.4531ZM109.742 17.625H111.242V25.3203C111.242 26.1745 111.052 26.8854 110.672 27.4531C110.292 28.0208 109.786 28.4479 109.156 28.7344C108.531 29.0156 107.852 29.1562 107.117 29.1562C106.346 29.1562 105.648 29.0156 105.023 28.7344C104.404 28.4479 103.911 28.0208 103.547 27.4531C103.188 26.8854 103.008 26.1745 103.008 25.3203V17.625H104.5V25.3203C104.5 25.9141 104.609 26.4036 104.828 26.7891C105.047 27.1745 105.352 27.4609 105.742 27.6484C106.138 27.8359 106.596 27.9297 107.117 27.9297C107.643 27.9297 108.102 27.8359 108.492 27.6484C108.888 27.4609 109.195 27.1745 109.414 26.7891C109.633 26.4036 109.742 25.9141 109.742 25.3203V17.625ZM114.836 22.1719V32.25H113.383V20.5469H114.711L114.836 22.1719ZM120.531 24.7031V24.8672C120.531 25.4818 120.458 26.0521 120.312 26.5781C120.167 27.099 119.953 27.5521 119.672 27.9375C119.396 28.3229 119.055 28.6224 118.648 28.8359C118.242 29.0495 117.776 29.1562 117.25 29.1562C116.714 29.1562 116.24 29.0677 115.828 28.8906C115.417 28.7135 115.068 28.4557 114.781 28.1172C114.495 27.7786 114.266 27.3724 114.094 26.8984C113.927 26.4245 113.812 25.8906 113.75 25.2969V24.4219C113.812 23.7969 113.93 23.237 114.102 22.7422C114.273 22.2474 114.5 21.8255 114.781 21.4766C115.068 21.1224 115.414 20.8542 115.82 20.6719C116.227 20.4844 116.695 20.3906 117.227 20.3906C117.758 20.3906 118.229 20.4948 118.641 20.7031C119.052 20.9062 119.398 21.1979 119.68 21.5781C119.961 21.9583 120.172 22.4141 120.312 22.9453C120.458 23.4714 120.531 24.0573 120.531 24.7031ZM119.078 24.8672V24.7031C119.078 24.2812 119.034 23.8854 118.945 23.5156C118.857 23.1406 118.719 22.8125 118.531 22.5312C118.349 22.2448 118.115 22.0208 117.828 21.8594C117.542 21.6927 117.201 21.6094 116.805 21.6094C116.44 21.6094 116.122 21.6719 115.852 21.7969C115.586 21.9219 115.359 22.0911 115.172 22.3047C114.984 22.513 114.831 22.7526 114.711 23.0234C114.596 23.2891 114.51 23.5651 114.453 23.8516V25.875C114.557 26.2396 114.703 26.5833 114.891 26.9062C115.078 27.224 115.328 27.4818 115.641 27.6797C115.953 27.8724 116.346 27.9688 116.82 27.9688C117.211 27.9688 117.547 27.888 117.828 27.7266C118.115 27.5599 118.349 27.3333 118.531 27.0469C118.719 26.7604 118.857 26.4323 118.945 26.0625C119.034 25.6875 119.078 25.2891 119.078 24.8672Z" fill="white"/>
</g>
<defs>
<filter id="filter0_d_227_3035" x="0" y="0" width="188" height="56" filterUnits="userSpaceOnUse" color-interpolation-filters="sRGB">
<feFlood flood-opacity="0" result="BackgroundImageFix"/>
<feColorMatrix in="SourceAlpha" type="matrix" values="0 0 0 0 0 0 0 0 0 0 0 0 0 0 0 0 0 0 127 0" result="hardAlpha"/>
<feOffset dy="4"/>
<feGaussianBlur stdDeviation="2"/>
<feComposite in2="hardAlpha" operator="out"/>
<feColorMatrix type="matrix" values="0 0 0 0 0 0 0 0 0 0 0 0 0 0 0 0 0 0 0.25 0"/>
<feBlend mode="normal" in2="BackgroundImageFix" result="effect1_dropShadow_227_3035"/>
<feBlend mode="normal" in="SourceGraphic" in2="effect1_dropShadow_227_3035" result="shape"/>
</filter>
</defs>
</svg>
