<svg width="343" height="64" viewBox="0 0 343 64" fill="none" xmlns="http://www.w3.org/2000/svg">
<path d="M34.6265 11.5V57H25.2515V11.5H34.6265ZM52.7515 30.9375V38.25H32.064V30.9375H52.7515ZM54.939 11.5V18.8438H32.064V11.5H54.939ZM97.7515 33.1875V35.3438C97.7515 38.8021 97.2827 41.9062 96.3452 44.6562C95.4077 47.4062 94.0848 49.75 92.3765 51.6875C90.6681 53.6042 88.6265 55.0729 86.2515 56.0938C83.8973 57.1146 81.2827 57.625 78.4077 57.625C75.5535 57.625 72.939 57.1146 70.564 56.0938C68.2098 55.0729 66.1681 53.6042 64.439 51.6875C62.7098 49.75 61.366 47.4062 60.4077 44.6562C59.4702 41.9062 59.0015 38.8021 59.0015 35.3438V33.1875C59.0015 29.7083 59.4702 26.6042 60.4077 23.875C61.3452 21.125 62.6681 18.7812 64.3765 16.8438C66.1056 14.9062 68.1473 13.4271 70.5015 12.4062C72.8765 11.3854 75.491 10.875 78.3452 10.875C81.2202 10.875 83.8348 11.3854 86.189 12.4062C88.564 13.4271 90.6056 14.9062 92.314 16.8438C94.0431 18.7812 95.3765 21.125 96.314 23.875C97.2723 26.6042 97.7515 29.7083 97.7515 33.1875ZM88.2827 35.3438V33.125C88.2827 30.7083 88.064 28.5833 87.6265 26.75C87.189 24.9167 86.5431 23.375 85.689 22.125C84.8348 20.875 83.7931 19.9375 82.564 19.3125C81.3348 18.6667 79.9285 18.3438 78.3452 18.3438C76.7619 18.3438 75.3556 18.6667 74.1265 19.3125C72.9181 19.9375 71.8869 20.875 71.0327 22.125C70.1994 23.375 69.564 24.9167 69.1265 26.75C68.689 28.5833 68.4702 30.7083 68.4702 33.125V35.3438C68.4702 37.7396 68.689 39.8646 69.1265 41.7188C69.564 43.5521 70.2098 45.1042 71.064 46.375C71.9181 47.625 72.9598 48.5729 74.189 49.2188C75.4181 49.8646 76.8244 50.1875 78.4077 50.1875C79.991 50.1875 81.3973 49.8646 82.6265 49.2188C83.8556 48.5729 84.8869 47.625 85.7202 46.375C86.5535 45.1042 87.189 43.5521 87.6265 41.7188C88.064 39.8646 88.2827 37.7396 88.2827 35.3438ZM130.876 41.9062H140.22C140.033 44.9688 139.189 47.6875 137.689 50.0625C136.21 52.4375 134.137 54.2917 131.47 55.625C128.824 56.9583 125.637 57.625 121.908 57.625C118.991 57.625 116.376 57.125 114.064 56.125C111.751 55.1042 109.772 53.6458 108.126 51.75C106.501 49.8542 105.262 47.5625 104.408 44.875C103.554 42.1875 103.126 39.1771 103.126 35.8438V32.6875C103.126 29.3542 103.564 26.3438 104.439 23.6562C105.335 20.9479 106.606 18.6458 108.251 16.75C109.918 14.8542 111.908 13.3958 114.22 12.375C116.533 11.3542 119.116 10.8438 121.97 10.8438C125.762 10.8438 128.96 11.5312 131.564 12.9062C134.189 14.2812 136.22 16.1771 137.658 18.5938C139.116 21.0104 139.991 23.7604 140.283 26.8438H130.908C130.804 25.0104 130.439 23.4583 129.814 22.1875C129.189 20.8958 128.241 19.9271 126.97 19.2812C125.72 18.6146 124.054 18.2812 121.97 18.2812C120.408 18.2812 119.043 18.5729 117.876 19.1562C116.71 19.7396 115.731 20.625 114.939 21.8125C114.147 23 113.554 24.5 113.158 26.3125C112.783 28.1042 112.595 30.2083 112.595 32.625V35.8438C112.595 38.1979 112.772 40.2708 113.126 42.0625C113.481 43.8333 114.022 45.3333 114.751 46.5625C115.501 47.7708 116.46 48.6875 117.626 49.3125C118.814 49.9167 120.241 50.2188 121.908 50.2188C123.866 50.2188 125.481 49.9062 126.751 49.2812C128.022 48.6562 128.991 47.7292 129.658 46.5C130.345 45.2708 130.751 43.7396 130.876 41.9062ZM171.501 11.5H180.845V41.5625C180.845 45.0625 180.095 48.0104 178.595 50.4062C177.116 52.8021 175.064 54.6042 172.439 55.8125C169.835 57.0208 166.835 57.625 163.439 57.625C160.043 57.625 157.022 57.0208 154.376 55.8125C151.751 54.6042 149.689 52.8021 148.189 50.4062C146.71 48.0104 145.97 45.0625 145.97 41.5625V11.5H155.345V41.5625C155.345 43.6042 155.668 45.2708 156.314 46.5625C156.96 47.8542 157.887 48.8021 159.095 49.4062C160.324 50.0104 161.772 50.3125 163.439 50.3125C165.147 50.3125 166.595 50.0104 167.783 49.4062C168.991 48.8021 169.908 47.8542 170.533 46.5625C171.179 45.2708 171.501 43.6042 171.501 41.5625V11.5ZM212.251 45.0938C212.251 44.2812 212.126 43.5521 211.876 42.9062C211.647 42.2396 211.21 41.6354 210.564 41.0938C209.918 40.5312 209.012 39.9792 207.845 39.4375C206.679 38.8958 205.168 38.3333 203.314 37.75C201.251 37.0833 199.293 36.3333 197.439 35.5C195.606 34.6667 193.981 33.6979 192.564 32.5938C191.168 31.4688 190.064 30.1667 189.251 28.6875C188.46 27.2083 188.064 25.4896 188.064 23.5312C188.064 21.6354 188.481 19.9167 189.314 18.375C190.147 16.8125 191.314 15.4792 192.814 14.375C194.314 13.25 196.085 12.3854 198.126 11.7812C200.189 11.1771 202.449 10.875 204.908 10.875C208.262 10.875 211.189 11.4792 213.689 12.6875C216.189 13.8958 218.126 15.5521 219.501 17.6562C220.897 19.7604 221.595 22.1667 221.595 24.875H212.283C212.283 23.5417 212.001 22.375 211.439 21.375C210.897 20.3542 210.064 19.5521 208.939 18.9688C207.835 18.3854 206.439 18.0938 204.751 18.0938C203.126 18.0938 201.772 18.3438 200.689 18.8438C199.606 19.3229 198.793 19.9792 198.251 20.8125C197.71 21.625 197.439 22.5417 197.439 23.5625C197.439 24.3333 197.626 25.0312 198.001 25.6562C198.397 26.2812 198.981 26.8646 199.751 27.4062C200.522 27.9479 201.47 28.4583 202.595 28.9375C203.72 29.4167 205.022 29.8854 206.501 30.3438C208.981 31.0938 211.158 31.9375 213.033 32.875C214.929 33.8125 216.512 34.8646 217.783 36.0312C219.054 37.1979 220.012 38.5208 220.658 40C221.304 41.4792 221.626 43.1562 221.626 45.0312C221.626 47.0104 221.241 48.7812 220.47 50.3438C219.699 51.9062 218.585 53.2292 217.126 54.3125C215.668 55.3958 213.929 56.2188 211.908 56.7812C209.887 57.3438 207.626 57.625 205.126 57.625C202.876 57.625 200.658 57.3333 198.47 56.75C196.283 56.1458 194.293 55.2396 192.501 54.0312C190.731 52.8229 189.314 51.2812 188.251 49.4062C187.189 47.5312 186.658 45.3125 186.658 42.75H196.064C196.064 44.1667 196.283 45.3646 196.72 46.3438C197.158 47.3229 197.772 48.1146 198.564 48.7188C199.376 49.3229 200.335 49.7604 201.439 50.0312C202.564 50.3021 203.793 50.4375 205.126 50.4375C206.751 50.4375 208.085 50.2083 209.126 49.75C210.189 49.2917 210.97 48.6562 211.47 47.8438C211.991 47.0312 212.251 46.1146 212.251 45.0938ZM237.97 11.5V57H228.626V11.5H237.97ZM266.158 11.5V57H256.814V11.5H266.158ZM280.158 11.5V18.8438H243.033V11.5H280.158ZM292.251 11.5L301.751 32.25L311.251 11.5H321.47L306.501 40.4375V57H297.001V40.4375L282.001 11.5H292.251Z" fill="url(#paint0_linear_227_2983)"/>
<defs>
<linearGradient id="paint0_linear_227_2983" x1="21.189" y1="67" x2="322.189" y2="67" gradientUnits="userSpaceOnUse">
<stop stop-color="#FA897B"/>
<stop offset="1" stop-color="#FFDD94"/>
</linearGradient>
</defs>
</svg>
